<svg width="663" height="295" viewBox="0 0 663 295" fill="none" xmlns="http://www.w3.org/2000/svg">
<g style="mix-blend-mode:multiply" filter="url(#filter0_gn_705_2535)">
<path d="M642.662 281.09L643.091 271.846C643.15 270.59 642.749 269.464 641.987 268.522C641.175 267.578 640.191 267.079 639.086 267.028L592.866 264.881L593.727 246.343L639.947 248.49C641.052 248.541 642.08 248.085 642.977 247.221C643.822 246.354 644.326 245.27 644.382 244.064L644.811 234.82L661.641 235.602L659.492 281.872L642.662 281.09Z" fill="#F5373E"/>
<path d="M595.602 234.317L581.692 192.143L645.646 171.049L659.556 213.223L643.555 218.501L637.065 198.823C636.64 197.533 635.863 196.624 634.815 196.017C633.72 195.425 632.623 195.31 631.477 195.688C630.283 196.082 629.421 196.842 628.941 197.954C628.412 199.082 628.377 200.258 628.802 201.548L635.292 221.226L620.056 226.251L613.566 206.573C613.141 205.284 612.364 204.375 611.317 203.767C610.269 203.159 609.124 203.06 607.978 203.439C606.784 203.832 605.922 204.593 605.346 205.736C604.77 206.88 604.75 208.104 605.16 209.346L611.65 229.024L595.602 234.317Z" fill="#F5373E"/>
<path d="M579.385 187.446L553.132 151.629L607.446 111.817L633.699 147.635L620.111 157.595L607.861 140.883C607.058 139.788 606.039 139.163 604.855 138.908C603.63 138.684 602.551 138.913 601.578 139.627C600.564 140.37 599.979 141.36 599.866 142.565C599.711 143.801 600.041 144.931 600.844 146.027L613.093 162.739L600.154 172.223L587.904 155.511C587.101 154.416 586.082 153.791 584.898 153.537C583.714 153.282 582.594 153.542 581.621 154.255C580.607 154.998 580.022 155.988 579.827 157.253C579.632 158.518 579.992 159.689 580.765 160.744L593.014 177.456L579.385 187.446Z" fill="#F5373E"/>
<path d="M573.87 116.18C572.748 117.601 571.269 118.42 569.574 118.619C567.839 118.788 566.241 118.295 564.82 117.174L564.415 117.687C565.836 118.809 566.615 120.257 566.815 121.952C567.015 123.647 566.553 125.205 565.432 126.627L549.041 147.391L534.672 136.048L544.3 123.85C545.484 122.35 545.968 120.682 545.831 118.908C545.694 117.133 544.915 115.685 543.573 114.626C542.191 113.535 540.601 113.114 538.844 113.392C537.086 113.671 535.615 114.56 534.431 116.06L524.803 128.258L510.157 116.698L551.881 63.8388L584.884 89.8893C586.542 91.1981 587.456 92.8809 587.736 94.9605C587.986 97.0796 587.487 98.9287 586.179 100.587L573.87 116.18ZM562.984 100.667C564.356 98.9304 564.995 97.0647 564.983 95.1325C564.931 93.1692 564.095 91.5487 562.516 90.3023C560.898 89.0247 559.096 88.628 557.175 89.0333C555.214 89.4074 553.587 90.4941 552.247 92.1915C550.876 93.9285 550.197 95.7631 550.288 97.7575C550.34 99.7208 551.176 101.341 552.794 102.619C554.373 103.865 556.143 104.302 558.065 103.896C559.947 103.46 561.613 102.404 562.984 100.667Z" fill="#F5373E"/>
<path d="M528.845 68.9174L520.56 64.7953C519.434 64.2352 518.242 64.1476 517.073 64.4648C515.882 64.827 515.029 65.526 514.536 66.5166L493.925 107.942L477.31 99.6757L497.92 58.25C498.413 57.2594 498.411 56.1348 497.981 54.9661C497.529 53.8424 496.74 52.9443 495.66 52.4067L487.374 48.2846L494.879 33.2003L536.35 53.833L528.845 68.9174Z" fill="#F5373E"/>
<path d="M463.074 84.6674C462.461 86.6889 461.214 88.2026 459.381 89.2233C457.547 90.244 455.658 90.4071 453.685 89.8087L420.861 79.8563C418.839 79.2434 417.311 78.0443 416.305 76.1626C415.299 74.2809 415.15 72.344 415.763 70.3225L419.703 57.3276L438.137 62.9168C437.553 64.8419 437.549 66.4171 438.108 67.6905C438.654 69.012 439.807 69.8873 441.492 70.3981C443.128 70.8943 444.636 70.7734 445.935 69.9583C447.218 69.1913 448.152 67.8453 448.706 66.0164C449.173 64.4762 449.023 63.0643 448.305 61.7953C447.538 60.5117 446.336 59.6218 444.699 59.1256L428.624 54.2516C426.603 53.6386 425.137 52.406 424.146 50.4762C423.154 48.5464 422.972 46.5467 423.585 44.5253L430.882 20.4606C431.494 18.4392 432.679 16.959 434.561 15.9529C436.428 14.9949 438.379 14.7983 440.401 15.4112L473.225 25.3636C475.198 25.9619 476.664 27.1946 477.622 29.0617C478.58 30.9288 478.791 32.8322 478.193 34.8055L474.544 46.8378L456.015 41.2195C456.525 39.535 456.453 38.0415 455.893 36.7681C455.27 35.5282 454.179 34.6194 452.591 34.1378C451.051 33.6708 449.606 33.7581 448.351 34.4288C447.097 35.0996 446.236 36.205 445.784 37.697C445.258 39.4297 445.331 40.9232 446.064 42.1441C446.735 43.3986 448 44.2549 449.78 44.7949L465.855 49.6689C467.829 50.2672 469.294 51.4999 470.252 53.367C471.21 55.2341 471.407 57.1856 470.809 59.1589L463.074 84.6674Z" fill="#F5373E"/>
<path d="M381.677 42.6207C381.538 44.7789 380.669 46.5374 379.171 47.9027C377.618 49.315 375.817 49.9049 373.709 49.7696L370.296 49.5505C369.091 49.4732 367.958 49.854 367.003 50.5991C365.998 51.3409 365.485 52.2655 365.414 53.3697L364.306 70.6349L345.786 69.4462L346.894 52.181C346.968 51.0266 346.578 50.044 345.726 49.183C344.874 48.322 343.796 47.8496 342.541 47.769L339.078 47.5467C337.02 47.4147 335.255 46.6462 333.84 45.1443C332.424 43.6423 331.774 41.9879 331.897 40.0807L334.39 1.23389L352.91 2.42262L351.367 26.4635C351.245 28.3707 351.744 30.0154 352.865 31.3977C353.986 32.7799 355.399 33.5258 357.206 33.6418C358.963 33.7545 360.51 33.1987 361.899 31.9775C363.237 30.7531 363.993 29.1889 364.115 27.2817L365.658 3.24088L384.128 4.42638L381.677 42.6207Z" fill="#F5373E"/>
<path d="M321.644 28.7398C321.783 30.545 321.251 32.1497 320.14 33.4459C318.979 34.7459 317.471 35.4674 315.666 35.6065L315.716 36.2584C317.521 36.1193 319.076 36.6553 320.372 37.766C321.668 38.8767 322.386 40.3347 322.525 42.1399L324.557 68.5158L306.305 69.9223L305.111 54.4277C304.964 52.5222 304.189 50.9678 302.885 49.7568C301.581 48.5458 300.026 48.0098 298.321 48.1412C296.566 48.2764 295.112 49.0442 294.009 50.4407C292.906 51.8372 292.428 53.4882 292.575 55.3936L293.769 70.8882L275.165 72.3217L269.992 5.17848L311.912 1.94829C314.018 1.78601 315.831 2.40293 317.448 3.7412C319.068 5.12962 319.955 6.82671 320.118 8.93277L321.644 28.7398ZM303.124 24.7191C302.954 22.5127 302.16 20.7076 300.84 19.296C299.471 17.8883 297.758 17.2636 295.752 17.4182C293.696 17.5766 292.103 18.5064 290.966 20.1073C289.778 21.7121 289.319 23.6138 289.485 25.77C289.655 27.9764 290.4 29.7853 291.82 31.1892C293.189 32.5969 294.902 33.2216 296.958 33.0632C298.963 32.9086 300.56 32.029 301.698 30.428C302.785 28.831 303.294 26.9254 303.124 24.7191Z" fill="#F5373E"/>
<path d="M260.405 34.3425C260.812 36.1067 260.526 37.7728 259.621 39.2203C258.667 40.6791 257.284 41.6177 255.52 42.0247L255.667 42.6618C257.431 42.2548 259.048 42.5526 260.496 43.4574C261.943 44.3622 262.87 45.6966 263.277 47.4608L269.225 73.2377L251.387 77.3534L247.893 62.2107C247.463 60.3485 246.464 58.9273 244.994 57.9246C243.524 56.9218 241.907 56.6239 240.241 57.0084C238.526 57.4041 237.202 58.3804 236.32 59.9259C235.438 61.4714 235.212 63.1752 235.642 65.0374L239.135 80.1801L220.954 84.375L205.814 18.7567L246.783 9.30411C248.841 8.82922 250.726 9.16856 252.524 10.2505C254.333 11.3815 255.464 12.9271 255.939 14.9853L260.405 34.3425ZM241.493 33.1316C240.996 30.9754 239.94 29.3092 238.425 28.1104C236.861 26.9229 235.074 26.5609 233.114 27.0132C231.104 27.4768 229.668 28.634 228.782 30.3868C227.847 32.151 227.678 34.0999 228.164 36.2071C228.661 38.3634 229.668 40.0409 231.281 41.2171C232.845 42.4046 234.632 42.7665 236.641 42.3029C238.602 41.8507 240.049 40.7424 240.935 38.9896C241.772 37.2481 241.991 35.2879 241.493 33.1316Z" fill="#F5373E"/>
<path d="M215.783 85.9656L174.621 102.635L149.343 40.2175L190.504 23.5478L196.829 39.1639L177.623 46.9419C176.364 47.4516 175.509 48.2864 174.972 49.3721C174.454 50.5044 174.412 51.6066 174.865 52.7253C175.337 53.8907 176.153 54.6997 177.294 55.1058C178.454 55.5584 179.63 55.516 180.889 55.0063L200.095 47.2283L206.117 62.0986L186.911 69.8766C185.653 70.3863 184.797 71.2212 184.26 72.3068C183.723 73.3925 183.7 74.5413 184.153 75.6601C184.625 76.8254 185.441 77.6345 186.62 78.1337C187.799 78.633 189.022 78.5717 190.234 78.0808L209.439 70.3029L215.783 85.9656Z" fill="#F5373E"/>
<path d="M165.582 98.7104C166.727 100.485 167.076 102.415 166.626 104.501C166.177 106.587 165.08 108.133 163.306 109.279L127.56 132.357L91.0342 75.7807L126.78 52.7031C128.554 51.5574 130.442 51.2365 132.501 51.6434C134.587 52.0927 136.175 53.1623 137.321 54.9369L146.705 69.4718C147.687 70.9928 148.026 72.63 147.666 74.2988C147.307 75.9675 146.324 77.3202 144.803 78.3022L145.212 78.936C146.734 77.9539 148.398 77.6576 150.067 78.017C151.735 78.3763 153.061 79.3166 154.043 80.8377L165.582 98.7104ZM128.381 75.6749C127.235 73.9003 125.731 72.7761 123.953 72.2477C122.133 71.7466 120.399 72.028 118.751 73.0918C117.061 74.183 116.091 75.6474 115.841 77.4852C115.548 79.3502 115.996 81.1564 117.142 82.931C118.287 84.7056 119.749 85.8571 121.542 86.3159C123.32 86.8443 125.026 86.5207 126.716 85.4295C128.364 84.3657 129.362 82.9435 129.654 81.0785C129.932 79.283 129.526 77.4495 128.381 75.6749ZM142.456 97.4771C141.311 95.7025 139.834 94.6206 138.056 94.0922C136.263 93.6333 134.529 93.9147 132.881 94.9786C131.191 96.0697 130.221 97.5342 129.944 99.3297C129.651 101.195 130.072 102.959 131.217 104.733C132.363 106.508 133.825 107.659 135.645 108.16C137.423 108.689 139.129 108.365 140.819 107.274C142.467 106.21 143.465 104.788 143.757 102.923C144.008 101.085 143.602 99.2517 142.456 97.4771Z" fill="#F5373E"/>
<path d="M123.807 135.262L95.725 164.146L47.4418 117.202L60.4486 103.824L93.587 136.043C94.4164 136.849 95.4531 137.226 96.6961 137.102C97.9402 137.049 99 136.536 99.8414 135.67L111.691 123.482L123.807 135.262Z" fill="#F5373E"/>
<path d="M85.6493 165.157C87.5326 166.114 88.8052 167.606 89.4671 169.635C90.1291 171.663 89.9597 173.551 89.0032 175.435L73.4249 206.106C72.4911 207.944 71.0883 209.262 69.1943 209.993C67.3004 210.723 65.5238 210.667 63.8199 209.801L9.92163 182.425L18.3257 165.879L57.7853 185.921C59.4893 186.787 61.1975 186.978 62.9099 186.494C64.6224 186.01 65.8886 184.96 66.6857 183.391C67.4601 181.866 67.5604 180.225 66.9412 178.557C66.3219 176.888 65.1831 175.577 63.4791 174.711L24.0195 154.669L32.4236 138.123L85.6493 165.157Z" fill="#F5373E"/>
<path d="M68.4907 212.296L69.2119 230.639L24.8375 232.383C22.9278 232.458 21.3917 233.072 20.2271 234.175C19.0625 235.278 18.5127 236.659 18.5799 238.367C18.6491 240.126 19.3074 241.51 20.557 242.568C21.8066 243.626 23.3842 244.067 25.2939 243.992L69.6683 242.247L70.3895 260.59L26.015 262.335C24.1054 262.41 22.5692 263.024 21.4046 264.127C20.24 265.229 19.6903 266.61 19.7575 268.319C19.8266 270.078 20.485 271.461 21.7346 272.519C22.9842 273.577 24.5618 274.019 26.4715 273.944L70.8459 272.199L71.567 290.542L4.27673 293.187L1.50073 222.58C1.4217 220.57 2.05413 218.733 3.35172 217.172C4.69956 215.609 6.27608 214.742 8.18574 214.667L68.4907 212.296Z" fill="#F5373E"/>
</g>
<defs>
<filter id="filter0_gn_705_2535" x="0.634141" y="0.373887" width="661.867" height="293.673" filterUnits="userSpaceOnUse" color-interpolation-filters="sRGB">
<feFlood flood-opacity="0" result="BackgroundImageFix"/>
<feBlend mode="normal" in="SourceGraphic" in2="BackgroundImageFix" result="shape"/>
<feTurbulence type="fractalNoise" baseFrequency="1.3333333730697632 1.3333333730697632" numOctaves="3" seed="4597" />
<feDisplacementMap in="shape" scale="1.7200000286102295" xChannelSelector="R" yChannelSelector="G" result="displacedImage" width="100%" height="100%" />
<feMerge result="effect1_texture_705_2535">
<feMergeNode in="displacedImage"/>
</feMerge>
<feTurbulence type="fractalNoise" baseFrequency="2 2" stitchTiles="stitch" numOctaves="3" result="noise" seed="5599" />
<feColorMatrix in="noise" type="luminanceToAlpha" result="alphaNoise" />
<feComponentTransfer in="alphaNoise" result="coloredNoise1">
<feFuncA type="discrete" tableValues="0 0 0 0 0 0 0 0 0 0 0 0 0 1 1 1 1 1 1 1 1 1 1 1 1 1 1 1 1 1 1 1 1 1 1 1 1 0 0 0 0 0 0 0 0 0 0 0 0 0 0 0 0 0 0 0 0 0 0 0 0 0 0 0 0 0 0 0 0 0 0 0 0 0 0 0 0 0 0 0 0 0 0 0 0 0 0 0 0 0 0 0 0 0 0 0 0 0 0 0 "/>
</feComponentTransfer>
<feComposite operator="in" in2="effect1_texture_705_2535" in="coloredNoise1" result="noise1Clipped" />
<feFlood flood-color="#B61E23" result="color1Flood" />
<feComposite operator="in" in2="noise1Clipped" in="color1Flood" result="color1" />
<feMerge result="effect2_noise_705_2535">
<feMergeNode in="effect1_texture_705_2535" />
<feMergeNode in="color1" />
</feMerge>
</filter>
</defs>
</svg>
