<svg width="663" height="295" viewBox="0 0 663 295" fill="none" xmlns="http://www.w3.org/2000/svg">
<g filter="url(#filter0_g_705_2536)">
<path d="M661.808 236.368L659.474 282.628L642.647 281.78L643.113 272.538C643.177 271.282 642.78 270.154 642.023 269.209C641.265 268.322 640.354 267.824 639.333 267.719L639.127 267.704L592.916 265.373L593.852 246.837L640.063 249.168C641.167 249.224 642.197 248.773 643.097 247.912C643.893 247.102 644.389 246.1 644.498 244.985L644.515 244.76L644.981 235.518L661.808 236.368ZM646.512 244.862C646.424 246.593 645.688 248.129 644.523 249.314L644.48 249.357C643.274 250.511 641.73 251.256 639.961 251.166L595.747 248.936L595.015 263.475L639.228 265.706C640.833 265.787 642.232 266.494 643.328 267.669L643.544 267.911L643.564 267.934L643.582 267.958C644.63 269.263 645.2 270.867 645.11 272.638L644.745 279.882L657.577 280.529L659.708 238.263L646.877 237.617L646.512 244.862Z" fill="#00724D"/>
<path d="M659.433 212.786L643.433 218.062L636.943 198.384C636.517 197.095 635.741 196.185 634.693 195.578C633.598 194.986 632.501 194.872 631.355 195.25L631.134 195.328C630.054 195.74 629.269 196.473 628.818 197.515L628.725 197.727C628.287 198.79 628.281 199.9 628.68 201.109L635.169 220.788L619.933 225.812L613.443 206.134C613.018 204.845 612.241 203.935 611.193 203.328C610.146 202.72 609.002 202.622 607.856 203L607.635 203.078C606.555 203.49 605.764 204.225 605.224 205.296L605.122 205.512C604.647 206.593 604.653 207.743 605.037 208.907L611.526 228.584L595.479 233.877L581.569 191.703L645.524 170.611L659.433 212.786ZM584.095 192.975L596.751 231.351L609.001 227.311L603.138 209.533C602.592 207.877 602.584 206.092 603.438 204.397C604.242 202.801 605.509 201.667 607.229 201.1C608.894 200.551 610.634 200.692 612.197 201.598C613.665 202.449 614.763 203.748 615.343 205.507L621.205 223.286L632.643 219.514L626.78 201.736C626.217 200.027 626.234 198.315 627.007 196.667C627.734 195.027 629.046 193.905 630.728 193.35C632.427 192.79 634.093 192.98 635.644 193.818L635.67 193.833L635.696 193.848C637.164 194.699 638.262 195.998 638.842 197.757L644.705 215.536L656.906 211.512L644.25 173.136L584.095 192.975Z" fill="#00724D"/>
<path d="M633.454 147.039L619.895 157.039L607.597 140.363C606.791 139.27 605.77 138.648 604.585 138.397C603.36 138.176 602.281 138.408 601.31 139.125L601.125 139.267C600.227 139.995 599.71 140.937 599.607 142.068L599.583 142.299C599.499 143.446 599.838 144.502 600.594 145.527L612.893 162.203L599.981 171.725L587.682 155.048C586.926 154.024 585.982 153.413 584.891 153.134L584.67 153.083C583.485 152.833 582.367 153.095 581.396 153.811L581.211 153.954C580.313 154.682 579.79 155.627 579.61 156.814C579.419 158.08 579.783 159.25 580.559 160.302L592.857 176.979L579.257 187.008L552.899 151.268L607.097 111.298L633.454 147.039ZM555.694 151.69L579.679 184.211L590.06 176.555L578.948 161.49C577.913 160.086 577.349 158.392 577.633 156.515C577.9 154.748 578.751 153.276 580.208 152.202C581.619 151.161 583.318 150.752 585.085 151.126C586.745 151.478 588.193 152.371 589.292 153.862L600.402 168.928L610.096 161.78L598.984 146.713C597.928 145.281 597.412 143.67 597.614 141.886L597.654 141.55C597.895 139.889 598.771 138.511 600.122 137.515C601.562 136.453 603.205 136.115 604.94 136.428L604.97 136.434L604.999 136.44C606.659 136.791 608.107 137.685 609.206 139.175L620.318 154.242L630.657 146.616L606.674 114.094L555.694 151.69Z" fill="#00724D"/>
<path d="M584.505 89.4556C586.166 90.7604 587.084 92.4412 587.369 94.52C587.624 96.6385 587.129 98.4889 585.824 100.15L573.553 115.771L573.339 116.031C572.249 117.295 570.851 118.029 569.262 118.22C567.527 118.393 565.929 117.904 564.505 116.786L564.101 117.3C565.524 118.419 566.307 119.865 566.511 121.56C566.714 123.255 566.257 124.814 565.139 126.238L548.796 147.041L534.401 135.731L544.001 123.51C545.181 122.008 545.661 120.338 545.52 118.564C545.378 116.79 544.596 115.344 543.251 114.288C541.867 113.2 540.276 112.782 538.52 113.065C536.763 113.348 535.294 114.241 534.113 115.744L524.513 127.963L509.841 116.437L551.442 63.4819L584.505 89.4556ZM512.649 116.099L524.176 125.155L532.541 114.507C534.007 112.641 535.91 111.459 538.202 111.09C540.512 110.719 542.665 111.284 544.486 112.715C546.276 114.121 547.329 116.082 547.514 118.406C547.695 120.682 547.064 122.848 545.573 124.746L537.208 135.393L548.459 144.232L563.566 125.002C564.378 123.968 564.662 122.932 564.526 121.798C564.385 120.624 563.867 119.66 562.865 118.873L561.293 117.637L562.528 116.065L562.932 115.55L564.168 113.978L565.74 115.213C566.774 116.026 567.856 116.344 569.037 116.233C570.189 116.091 571.185 115.547 571.98 114.536L584.252 98.9146C585.214 97.6898 585.575 96.3775 585.385 94.771C585.163 93.1887 584.496 91.9912 583.27 91.0278L551.778 66.2905L512.649 116.099ZM556.392 86.7046C558.885 86.177 561.288 86.708 563.374 88.3472C565.276 89.8413 566.395 91.8371 566.589 94.2075L566.615 94.687L566.616 94.7065V94.7271C566.638 97.1454 565.83 99.4489 564.203 101.52C562.576 103.591 560.53 104.92 558.175 105.472L558.155 105.476L558.136 105.481C555.61 106.02 553.238 105.426 551.209 103.833C549.158 102.221 548.016 100.072 547.931 97.4995L547.93 97.5005C547.806 94.9406 548.694 92.6438 550.301 90.5981C551.876 88.5932 553.891 87.1938 556.392 86.7046ZM562.139 89.9204C560.517 88.6466 558.715 88.2539 556.794 88.6636L556.431 88.7427C554.632 89.1807 553.126 90.2391 551.873 91.8335L551.625 92.1606C550.425 93.8035 549.838 95.5342 549.928 97.4038C549.985 99.367 550.824 100.985 552.445 102.259C553.928 103.424 555.577 103.877 557.36 103.591L557.719 103.525C559.483 103.112 561.055 102.154 562.371 100.602L562.631 100.284C563.998 98.5437 564.633 96.6766 564.616 94.7446C564.563 92.9043 563.823 91.3667 562.427 90.1577L562.139 89.9204Z" fill="#00724D"/>
<path d="M535.931 53.5317L528.45 68.6284L520.158 64.52C519.032 63.9618 517.839 63.8758 516.671 64.1948C515.48 64.5589 514.628 65.2593 514.137 66.2505L493.593 107.709L476.965 99.4702L497.508 58.0112C497.999 57.0198 497.995 55.8951 497.564 54.7271C497.138 53.6742 496.416 52.8201 495.437 52.2759L495.237 52.1714L486.945 48.063L494.426 32.9663L535.931 53.5317ZM489.626 47.1597L496.126 50.3794C497.582 51.1011 498.653 52.2775 499.295 53.6919L499.418 53.978L499.429 54.0054L499.44 54.0337C500.018 55.5998 500.086 57.3121 499.3 58.8989L479.645 98.5659L492.689 105.029L512.345 65.3628C513.106 63.8261 514.428 62.7899 516.086 62.2827L516.114 62.2739L516.144 62.2651C517.759 61.824 519.457 61.9408 521.046 62.728L527.546 65.9487L533.249 54.436L495.329 35.647L489.626 47.1597Z" fill="#00724D"/>
<path d="M434.088 15.813C435.954 14.8524 437.905 14.6534 439.927 15.2632L472.766 25.1655C474.74 25.7609 476.208 26.9913 477.169 28.8569C478.13 30.7226 478.343 32.6259 477.748 34.6001L474.118 46.6382L455.58 41.0474C456.088 39.3622 456.013 37.8687 455.451 36.5962C454.866 35.4347 453.869 34.5649 452.438 34.0659L452.146 33.9712C450.605 33.5066 449.16 33.5957 447.906 34.2681L447.676 34.3999C446.547 35.0812 445.766 36.1411 445.344 37.5405L445.252 37.8628C444.832 39.4595 444.942 40.8433 445.631 41.9868C446.304 43.2402 447.569 44.0951 449.351 44.6323L465.434 49.4819C467.408 50.0773 468.875 51.3078 469.836 53.1733C470.797 55.0389 470.996 56.9902 470.401 58.9644L462.705 84.4849L462.583 84.8579C461.937 86.6946 460.735 88.0869 459.018 89.0464L458.674 89.228C456.95 90.0874 455.174 90.1983 453.323 89.6401L420.484 79.7378C418.589 79.1661 417.125 78.0779 416.118 76.395L415.923 76.0503C414.977 74.2877 414.785 72.4754 415.267 70.5894L415.372 70.2114L419.293 57.2104L437.734 62.772C437.154 64.6979 437.152 66.2729 437.714 67.5454C438.261 68.866 439.416 69.7393 441.101 70.2476C442.635 70.7103 444.057 70.6315 445.297 69.9468L445.543 69.8013C446.745 69.0804 447.64 67.8513 448.201 66.1929L448.309 65.855C448.773 64.3143 448.621 62.9031 447.901 61.6353C447.18 60.433 446.078 59.5769 444.594 59.0679L444.291 58.9702L428.209 54.1206C426.313 53.5489 424.905 52.4318 423.917 50.7056L423.725 50.3521C422.793 48.5443 422.571 46.6739 423.05 44.7808L423.155 44.4019L430.415 20.3267C430.987 18.4308 432.062 17.0099 433.743 16.0083L434.088 15.813ZM439.35 17.1772C437.843 16.7229 436.432 16.8611 435.022 17.5825C433.629 18.3335 432.79 19.3801 432.33 20.9038L425.07 44.98C424.613 46.497 424.742 47.9614 425.502 49.436C426.255 50.8952 427.296 51.7572 428.786 52.2065L444.869 57.0562C446.782 57.633 448.347 58.6927 449.41 60.2817L449.616 60.6069L449.628 60.6265L449.64 60.647C450.649 62.4225 450.835 64.4046 450.224 66.4331C449.579 68.5721 448.415 70.394 446.609 71.4927L446.609 71.4937C446.604 71.4974 446.597 71.5007 446.591 71.5044C446.584 71.5084 446.578 71.5131 446.571 71.5171L446.57 71.5161C444.7 72.6781 442.586 72.7846 440.524 72.1626C438.485 71.5479 436.74 70.3745 435.885 68.3521L435.884 68.353C435.31 67.0527 435.184 65.6351 435.385 64.1528L420.63 59.7036L417.287 70.7886C416.822 72.3305 416.94 73.7169 417.685 75.105C418.43 76.4931 419.52 77.3578 421.062 77.8228L453.901 87.7251C455.379 88.171 456.705 88.0475 458.043 87.3003C459.434 86.5233 460.334 85.4205 460.79 83.9077L468.486 58.3872C468.926 56.929 468.79 55.5121 468.058 54.0894C467.34 52.6961 466.3 51.8327 464.856 51.397L448.774 46.5474C446.726 45.9298 444.92 44.8456 443.9 42.9888C442.802 41.1444 442.804 39.0352 443.429 36.9634C444.013 35.0262 445.184 33.4594 446.96 32.5063C448.759 31.5412 450.766 31.466 452.723 32.0562C454.646 32.6362 456.141 33.7603 457.061 35.3677L457.237 35.6958L457.26 35.7417L457.281 35.7886C457.813 36.9928 458.006 38.2961 457.883 39.6538L472.78 44.146L475.833 34.0229C476.269 32.5782 476.13 31.2087 475.391 29.773C474.673 28.3797 473.633 27.5163 472.189 27.0806L439.35 17.1772Z" fill="#00724D"/>
<path d="M352.434 2.39893L350.921 26.4419L350.906 26.7964C350.867 28.5537 351.373 30.08 352.425 31.3745C353.547 32.7553 354.963 33.4991 356.77 33.6128C358.526 33.7232 360.073 33.1656 361.46 31.9429C362.713 30.7935 363.454 29.346 363.641 27.5981L363.671 27.2437L365.184 3.20166L383.654 4.36377L381.251 42.561C381.115 44.7193 380.249 46.479 378.752 47.8462L378.458 48.1011C377.074 49.2491 375.495 49.7724 373.684 49.7358L373.292 49.7192L369.879 49.5054C368.675 49.4297 367.542 49.8119 366.588 50.5581L366.405 50.6987C365.521 51.4167 365.067 52.2952 365.002 53.3306L363.916 70.5972L345.395 69.4321L346.481 52.1655C346.549 51.0834 346.209 50.1521 345.464 49.3315L345.309 49.1685C344.509 48.3624 343.511 47.8978 342.356 47.7778L342.122 47.7583L338.659 47.5405C336.601 47.4111 334.835 46.6452 333.417 45.145C332.089 43.7388 331.433 42.1975 331.455 40.439L331.468 40.0835L333.912 1.23389L352.434 2.39893ZM333.464 40.2095C333.383 41.4999 333.789 42.6252 334.871 43.771C335.913 44.8735 337.19 45.4441 338.784 45.5444L342.248 45.7622C343.96 45.87 345.509 46.531 346.729 47.7603C347.952 48.9936 348.588 50.5222 348.477 52.2905L347.516 67.562L362.045 68.4751L363.007 53.2046C363.116 51.4785 363.946 50.0425 365.356 48.9829C366.665 47.9584 368.275 47.4004 370.005 47.5093L373.418 47.7241C375.017 47.8247 376.277 47.3967 377.403 46.3696C378.515 45.354 379.152 44.0789 379.255 42.4351L381.532 6.23486L367.054 5.32373L365.667 27.3696C365.515 29.7821 364.537 31.8338 362.812 33.4165L362.797 33.4302L362.782 33.4429C361.026 34.9909 358.967 35.7551 356.644 35.6089C354.273 35.4597 352.343 34.4447 350.873 32.6362C349.409 30.8349 348.776 28.6845 348.925 26.3159L350.312 4.27002L335.782 3.35596L333.464 40.2095Z" fill="#00724D"/>
<path d="M311.438 1.97608C313.543 1.8112 315.358 2.42593 316.976 3.76221C318.598 5.14859 319.487 6.84492 319.651 8.95068L321.202 28.7554C321.344 30.5603 320.813 32.1658 319.704 33.4634L319.483 33.7007C318.355 34.853 316.925 35.4969 315.233 35.6294L315.283 36.2817C317.088 36.1404 318.644 36.6746 319.942 37.7837C321.239 38.8928 321.958 40.3498 322.1 42.1548L324.165 68.5278L305.914 69.9565L304.701 54.4644C304.561 52.6781 303.869 51.201 302.707 50.0269L302.469 49.7954C301.163 48.5861 299.608 48.0526 297.903 48.186C296.149 48.3235 294.695 49.0929 293.594 50.4907C292.493 51.8884 292.017 53.5398 292.166 55.4448L293.379 70.938L274.777 72.395L269.521 5.2583L311.438 1.97608ZM315.69 5.29541C314.454 4.27861 313.151 3.84837 311.594 3.97022L271.67 7.09619L276.615 70.2446L291.229 69.1001L290.172 55.6011C289.987 53.2351 290.587 51.0759 292.024 49.2524C293.471 47.4148 295.438 46.3727 297.747 46.1919C300.015 46.0143 302.118 46.7446 303.828 48.3286C305.503 49.8803 306.506 51.9025 306.694 54.3081L307.752 67.8081L322.015 66.6899L320.106 42.311C320.003 40.9992 319.51 40.0461 318.642 39.3042C317.743 38.5358 316.71 38.1764 315.44 38.2759L313.446 38.4312L313.083 33.7915L315.076 33.6362C316.389 33.5335 317.401 33.0333 318.195 32.1499C318.945 31.2663 319.308 30.1919 319.208 28.9116L317.657 9.10693C317.536 7.55613 316.915 6.3477 315.69 5.29541ZM295.141 15.4722C297.552 15.2834 299.727 15.994 301.475 17.6069L301.818 17.9409L301.833 17.9556L301.847 17.9702C303.5 19.735 304.466 21.9764 304.672 24.6021C304.877 27.2276 304.272 29.5917 302.913 31.5923L302.901 31.6089L302.89 31.6245C301.396 33.7313 299.25 34.9016 296.678 35.103C294.072 35.3071 291.771 34.4976 289.964 32.6538C288.148 30.8559 287.249 28.5695 287.046 25.9819C286.847 23.4453 287.381 21.0559 288.882 19.0054C288.885 19.0014 288.888 18.9967 288.891 18.9927C288.895 18.9863 288.9 18.9795 288.904 18.9731C290.381 16.9078 292.503 15.6787 295.141 15.4722ZM300.387 19.3374C299.016 17.9315 297.302 17.3094 295.297 17.4663L294.916 17.5054C293.044 17.7463 291.578 18.6588 290.514 20.1606L290.3 20.4653C289.273 22.0058 288.882 23.8043 289.04 25.8257C289.213 28.0317 289.96 29.8396 291.381 31.2417C292.666 32.5598 294.253 33.1894 296.14 33.1304L296.522 33.1099C298.402 32.9626 299.922 32.178 301.04 30.7603L301.259 30.4683C302.277 28.9697 302.785 27.2006 302.702 25.1675L302.678 24.7573C302.505 22.5514 301.708 20.7473 300.387 19.3374Z" fill="#00724D"/>
<path d="M246.306 9.41748C248.363 8.93977 250.248 9.27564 252.048 10.355C253.859 11.4834 254.992 13.0279 255.47 15.0855L259.963 34.436C260.373 36.1997 260.088 37.8662 259.186 39.3149L259.002 39.5825C258.06 40.8903 256.742 41.7415 255.089 42.1255L255.236 42.7622C257 42.3527 258.618 42.6486 260.067 43.5513C261.515 44.454 262.444 45.7868 262.854 47.5503L268.838 73.3188L251.006 77.4595L247.49 62.3218C247.085 60.5769 246.18 59.2202 244.857 58.2329L244.586 58.0396C243.115 57.0389 241.497 56.7436 239.831 57.1304L239.514 57.2124C237.953 57.6537 236.739 58.6033 235.914 60.0532L235.757 60.3452C235.009 61.8138 234.838 63.4212 235.243 65.1665L238.759 80.3042L220.583 84.5249L205.351 18.9282L246.306 9.41748ZM251.007 12.0649C249.632 11.2436 248.279 11.0115 246.758 11.3647L207.75 20.4243L222.078 82.1235L236.358 78.8081L233.295 65.6187C232.758 63.307 233.028 61.0827 234.176 59.0649C235.333 57.0312 237.123 55.7061 239.379 55.1821C241.595 54.6677 243.783 55.0758 245.71 56.3862C247.598 57.6701 248.893 59.5192 249.439 61.8696L252.501 75.0581L266.437 71.8228L260.905 48.0024C260.608 46.721 259.978 45.8523 259.009 45.2485C258.005 44.6231 256.93 44.4222 255.689 44.7104L253.74 45.1626L252.688 40.6294L254.636 40.1772C255.916 39.8801 256.841 39.2364 257.494 38.2476C258.106 37.2604 258.306 36.1416 258.015 34.8882L253.522 15.5376C253.17 14.023 252.374 12.9222 251.007 12.0649ZM232.209 25.1978C234.565 24.6507 236.822 25.0274 238.791 26.3608L239.181 26.6401L239.197 26.6528L239.213 26.6646C241.112 28.1623 242.402 30.2339 242.998 32.7993C243.594 35.3647 243.348 37.7929 242.304 39.9741L242.295 39.9927L242.286 40.0103C241.125 42.3167 239.176 43.7948 236.663 44.3784C234.113 44.9705 231.714 44.5124 229.651 42.9546C227.591 41.4487 226.363 39.3242 225.776 36.7993C225.201 34.3208 225.371 31.8784 226.549 29.6265L226.548 29.6255C227.697 27.3442 229.619 25.7992 232.209 25.1978ZM237.974 28.2349C236.408 27.0498 234.621 26.691 232.661 27.146L232.291 27.2407C230.476 27.7588 229.163 28.8808 228.335 30.5249L228.169 30.8589C227.384 32.5353 227.266 34.3715 227.725 36.3462C228.225 38.5017 229.234 40.1782 230.849 41.3521C232.317 42.4633 233.98 42.8489 235.837 42.5083L236.211 42.4302C238.17 41.9751 239.617 40.8648 240.5 39.1108C241.282 37.477 241.521 35.6517 241.135 33.6538L241.05 33.2524C240.549 31.0969 239.491 29.4315 237.974 28.2349Z" fill="#00724D"/>
<path d="M196.381 39.354L177.189 47.1646L176.957 47.2642C175.825 47.7818 175.043 48.5805 174.541 49.5991C174.025 50.7323 173.986 51.8346 174.441 52.9526C174.914 54.1171 175.731 54.9245 176.873 55.3286C177.961 55.7511 179.064 55.739 180.234 55.314L180.468 55.2231L199.66 47.4126L205.708 62.2729L186.516 70.0835L186.285 70.1831C185.153 70.7007 184.371 71.4994 183.869 72.5181L183.775 72.7222C183.333 73.7479 183.341 74.8234 183.768 75.8716C184.242 77.0361 185.059 77.8441 186.238 78.3413C187.344 78.8074 188.489 78.7808 189.625 78.3696L189.853 78.2817L209.045 70.4712L215.414 86.1235L174.281 102.863L148.897 40.4888L190.029 23.7485L196.381 39.354ZM151.503 41.5874L175.379 100.256L212.808 85.0239L207.946 73.0767L190.607 80.1343C188.992 80.7915 187.211 80.9212 185.462 80.1841C183.815 79.4898 182.598 78.3023 181.915 76.6255C181.254 75.0013 181.276 73.2551 182.074 71.6343C182.824 70.1124 184.046 68.9292 185.762 68.231L203.101 61.1753L198.562 50.019L181.222 57.0757C179.555 57.7539 177.847 57.8527 176.15 57.1938C174.464 56.5797 173.255 55.3466 172.588 53.7065C171.913 52.049 171.991 50.3738 172.722 48.77L172.734 48.7427L172.747 48.7153C173.497 47.1935 174.719 46.0102 176.435 45.312L193.774 38.2563L188.931 26.356L151.503 41.5874Z" fill="#00724D"/>
<path d="M126.344 53.022C128.116 51.8729 130.004 51.5487 132.064 51.9517C134.15 52.3969 135.741 53.4635 136.89 55.2358L146.302 69.7524C147.287 71.2716 147.629 72.9082 147.273 74.5776L147.198 74.8872C146.792 76.4151 145.841 77.6631 144.417 78.5864L144.827 79.2192C146.346 78.2343 148.01 77.9354 149.68 78.2915C151.349 78.6476 152.676 79.585 153.661 81.104L165.234 98.9546C166.384 100.727 166.736 102.657 166.291 104.744L166.199 105.128C165.706 107.022 164.641 108.451 162.98 109.528L127.278 132.674L90.6437 76.1685L126.344 53.022ZM131.662 53.9126C130.092 53.6089 128.741 53.8516 127.432 54.7007L93.4093 76.7583L127.867 129.908L161.892 107.849C163.231 106.981 164.004 105.88 164.335 104.326C164.671 102.752 164.414 101.365 163.557 100.042L151.984 82.1919C151.268 81.088 150.379 80.4858 149.263 80.2476C148.123 80.0043 146.998 80.1956 145.915 80.8979L144.237 81.9858L141.651 77.9966L143.329 76.9087C144.447 76.1837 145.082 75.2618 145.317 74.1606C145.551 73.0593 145.348 71.9586 144.623 70.8403L135.212 56.3237C134.365 55.018 133.242 54.2532 131.662 53.9126ZM131.44 93.6079C133.538 92.2475 135.842 91.8539 138.193 92.4507L138.23 92.4604L138.267 92.4712C140.522 93.1366 142.387 94.5215 143.785 96.6782C145.176 98.8238 145.715 101.132 145.401 103.475L145.399 103.496L145.395 103.515C145.009 106.005 143.646 107.903 141.577 109.245C139.492 110.597 137.2 111.089 134.789 110.39V110.392C132.421 109.745 130.576 108.247 129.204 106.131C127.825 104.004 127.247 101.751 127.621 99.3364C127.989 96.9316 129.314 94.9859 131.44 93.6079ZM137.7 94.3892C135.907 93.9338 134.173 94.2187 132.527 95.2856L132.22 95.4956C130.722 96.5651 129.855 97.9592 129.598 99.6431L129.552 99.9917C129.365 101.729 129.805 103.382 130.882 105.043C132.031 106.816 133.495 107.965 135.317 108.462C136.984 108.954 138.588 108.698 140.173 107.762L140.489 107.566C142.135 106.499 143.13 105.075 143.419 103.209C143.65 101.486 143.305 99.7676 142.314 98.0991L142.108 97.7661C140.958 95.9937 139.479 94.9141 137.7 94.3892ZM117.267 71.7485C119.238 70.4706 121.399 70.0423 123.634 70.5327L124.082 70.6431L124.102 70.6479L124.121 70.6538C126.388 71.3228 128.276 72.7573 129.667 74.9028C131.054 77.0421 131.606 79.364 131.25 81.6938V81.6978C130.865 84.1876 129.501 86.0857 127.432 87.4272C125.356 88.7728 123.077 89.267 120.679 88.5825C120.66 88.5779 120.642 88.5726 120.624 88.5679C120.618 88.566 120.611 88.5648 120.605 88.563C118.267 87.9477 116.439 86.4431 115.086 84.3569C113.718 82.2464 113.104 79.9574 113.474 77.5376C113.81 75.0779 115.142 73.1261 117.267 71.7485ZM123.555 72.5728C121.734 72.0753 120 72.3593 118.355 73.4263C116.667 74.5207 115.7 75.9875 115.453 77.8257L115.407 78.1743C115.223 79.9164 115.687 81.6074 116.765 83.269C117.914 85.0411 119.378 86.1896 121.171 86.645C122.95 87.17 124.656 86.8429 126.344 85.7485C127.887 84.7482 128.858 83.4343 129.211 81.7368L129.274 81.3921C129.548 79.5961 129.139 77.7631 127.989 75.9907C126.84 74.2184 125.334 73.0977 123.555 72.5728Z" fill="#00724D"/>
<path d="M93.3146 136.446C94.094 137.2 95.0545 137.575 96.1954 137.514L96.4259 137.497C97.5921 137.444 98.5951 136.987 99.4074 136.215L99.5675 136.057L111.386 123.838L123.532 135.587L95.5245 164.542L47.1212 117.723L60.0929 104.312L93.3146 136.446ZM49.9493 117.676L95.4767 161.714L120.703 135.634L111.433 126.667L101.005 137.448C99.8352 138.657 98.3045 139.414 96.5167 139.495C94.7406 139.647 93.1587 139.077 91.924 137.883L60.1408 107.139L49.9493 117.676Z" fill="#00724D"/>
<path d="M85.4513 165.585C87.3377 166.536 88.6155 168.024 89.2843 170.05C89.953 172.076 89.7899 173.965 88.84 175.851L73.3663 206.576L73.1876 206.915C72.2628 208.58 70.9228 209.786 69.1495 210.477L68.796 210.606C67.0361 211.204 65.3747 211.109 63.7745 210.303L9.78236 183.112L18.13 166.538L57.6583 186.445C59.2585 187.251 60.8604 187.464 62.464 187.083L62.7843 187C64.3882 186.54 65.5983 185.585 66.3956 184.172L66.5499 183.884C67.271 182.452 67.3993 180.92 66.8976 179.361L66.7892 179.049C66.2033 177.487 65.1615 176.239 63.6271 175.381L63.3136 175.215L23.7863 155.308L32.1329 138.733L85.4513 165.585ZM26.4728 154.421L64.213 173.429C66.3681 174.515 67.8594 176.209 68.6613 178.346C69.4798 180.529 69.3594 182.752 68.3361 184.784C67.2942 186.852 65.5845 188.278 63.3351 188.922C61.1034 189.561 58.8784 189.298 56.7589 188.231L19.0167 169.223L12.4699 182.225L64.674 208.517C65.8325 209.101 67.0146 209.161 68.423 208.613C69.824 208.067 70.86 207.105 71.5802 205.675L87.0538 174.952C87.7717 173.526 87.8829 172.186 87.3849 170.677C86.8804 169.149 85.9591 168.08 84.5519 167.372L33.0206 141.418L26.4728 154.421Z" fill="#00724D"/>
<path d="M69.2443 231.124L24.8771 233.041L24.5236 233.062C22.7775 233.202 21.3614 233.812 20.2736 234.85L20.0636 235.061C19.048 236.132 18.5735 237.447 18.6427 239.048C18.7187 240.807 19.3824 242.187 20.6359 243.241C21.8113 244.228 23.273 244.673 25.0245 244.657L25.3781 244.647L69.7452 242.731L70.5382 261.071L26.1701 262.987L25.8165 263.008C24.0706 263.148 22.6543 263.758 21.5665 264.796L21.3566 265.007C20.341 266.078 19.8666 267.393 19.9357 268.995C20.0116 270.753 20.6762 272.135 21.9298 273.188C23.1834 274.241 24.7629 274.676 26.672 274.593L71.0392 272.677L71.8312 291.017L4.55189 293.923L1.50208 223.328C1.42071 221.444 1.96543 219.709 3.09779 218.209L3.33216 217.913C4.59012 216.442 6.05179 215.582 7.80287 215.413L8.15638 215.388L68.4523 212.784L69.2443 231.124ZM8.24329 217.386C6.99199 217.44 5.91362 217.98 4.86829 219.194C3.89055 220.383 3.43624 221.737 3.50111 223.241L6.464 291.838L69.7462 289.105L69.1271 274.761L26.7579 276.592C24.4829 276.691 22.3711 276.171 20.6427 274.719C18.9319 273.282 18.0362 271.362 17.9376 269.082C17.8404 266.83 18.5857 264.878 20.1867 263.35C21.7484 261.86 23.7662 261.089 26.0841 260.989L68.4523 259.159L67.8331 244.815L25.465 246.645C23.1898 246.743 21.0782 246.224 19.3497 244.772C17.6389 243.334 16.7432 241.415 16.6447 239.134C16.5475 236.883 17.2918 234.93 18.8927 233.403C20.4545 231.912 22.4732 231.143 24.7911 231.042L67.1593 229.211L66.5402 214.868L8.24329 217.386ZM68.1456 210.794C67.2692 211.01 66.4175 211.047 65.5841 210.906L68.1456 210.794Z" fill="#00724D"/>
</g>
<defs>
<filter id="filter0_g_705_2536" x="0.634141" y="0.373887" width="662.033" height="294.409" filterUnits="userSpaceOnUse" color-interpolation-filters="sRGB">
<feFlood flood-opacity="0" result="BackgroundImageFix"/>
<feBlend mode="normal" in="SourceGraphic" in2="BackgroundImageFix" result="shape"/>
<feTurbulence type="fractalNoise" baseFrequency="1.3333333730697632 1.3333333730697632" numOctaves="3" seed="4597" />
<feDisplacementMap in="shape" scale="1.7200000286102295" xChannelSelector="R" yChannelSelector="G" result="displacedImage" width="100%" height="100%" />
<feMerge result="effect1_texture_705_2536">
<feMergeNode in="displacedImage"/>
</feMerge>
</filter>
</defs>
</svg>
