<svg width="663" height="295" viewBox="0 0 663 295" fill="none" xmlns="http://www.w3.org/2000/svg">
<g filter="url(#filter0_g_705_2538)">
<path d="M642.647 281.779L643.113 272.537C643.176 271.282 642.78 270.154 642.022 269.209C641.214 268.262 640.232 267.759 639.127 267.703L592.916 265.372L593.851 246.838L640.062 249.169C641.167 249.225 642.197 248.773 643.096 247.912C643.946 247.048 644.453 245.966 644.514 244.761L644.98 235.518L661.807 236.367L659.473 282.628L642.647 281.779Z" fill="white"/>
<path d="M595.478 233.877L581.569 191.703L645.523 170.611L659.432 212.785L643.432 218.062L636.942 198.384C636.517 197.095 635.74 196.186 634.693 195.578C633.597 194.986 632.5 194.871 631.354 195.249C630.16 195.643 629.299 196.404 628.818 197.515C628.29 198.643 628.254 199.82 628.679 201.109L635.169 220.787L619.933 225.812L613.443 206.134C613.018 204.844 612.241 203.935 611.194 203.328C610.146 202.72 609.001 202.621 607.855 202.999C606.661 203.393 605.799 204.153 605.223 205.297C604.647 206.44 604.627 207.665 605.037 208.906L611.527 228.585L595.478 233.877Z" fill="white"/>
<path d="M579.256 187.008L552.898 151.268L607.096 111.298L633.454 147.039L619.895 157.039L607.596 140.362C606.79 139.27 605.769 138.648 604.584 138.397C603.359 138.176 602.281 138.408 601.309 139.125C600.297 139.871 599.716 140.862 599.606 142.068C599.455 143.304 599.788 144.434 600.594 145.527L612.892 162.203L599.98 171.725L587.682 155.049C586.876 153.956 585.855 153.334 584.67 153.083C583.485 152.832 582.366 153.095 581.395 153.811C580.383 154.557 579.802 155.549 579.61 156.814C579.419 158.08 579.782 159.25 580.558 160.302L592.856 176.979L579.256 187.008Z" fill="white"/>
<path d="M573.552 115.771C572.434 117.195 570.956 118.017 569.261 118.221C567.527 118.393 565.928 117.905 564.504 116.786L564.101 117.3C565.524 118.419 566.307 119.865 566.51 121.56C566.714 123.255 566.256 124.814 565.138 126.238L548.796 147.04L534.4 135.731L544 123.511C545.181 122.008 545.661 120.338 545.52 118.564C545.378 116.79 544.596 115.344 543.251 114.288C541.867 113.2 540.276 112.783 538.519 113.065C536.763 113.348 535.294 114.24 534.113 115.743L524.513 127.964L509.84 116.437L551.442 63.4816L584.504 89.4553C586.165 90.7602 587.083 92.4408 587.369 94.5198C587.623 96.6383 587.129 98.4886 585.824 100.15L573.552 115.771ZM562.63 100.284C563.997 98.544 564.633 96.6768 564.616 94.7447C564.559 92.7815 563.72 91.163 562.138 89.9203C560.517 88.6464 558.714 88.2539 556.794 88.6637C554.833 89.0423 553.209 90.1328 551.873 91.8334C550.506 93.5736 549.831 95.4097 549.927 97.4039C549.984 99.3671 550.823 100.986 552.445 102.259C554.027 103.502 555.798 103.934 557.718 103.525C559.6 103.084 561.263 102.024 562.63 100.284Z" fill="white"/>
<path d="M528.45 68.6284L520.158 64.5198C519.031 63.9615 517.839 63.8758 516.67 64.1949C515.48 64.5591 514.627 65.2594 514.136 66.2508L493.593 107.71L476.964 99.4702L497.508 58.0112C497.999 57.0198 497.995 55.8952 497.563 54.7272C497.109 53.6042 496.319 52.7074 495.237 52.1715L486.946 48.0629L494.426 32.9664L535.93 53.5319L528.45 68.6284Z" fill="white"/>
<path d="M462.705 84.4848C462.095 86.5072 460.85 88.0228 459.018 89.0462C457.186 90.0697 455.297 90.2356 453.323 89.6403L420.484 79.7374C418.462 79.1275 416.931 77.9307 415.922 76.0506C414.913 74.1704 414.762 72.2337 415.372 70.2113L419.292 57.2105L437.734 62.7718C437.154 64.6978 437.151 66.273 437.713 67.5456C438.26 68.8663 439.415 69.7398 441.101 70.248C442.738 70.7417 444.246 70.6186 445.543 69.8016C446.825 69.0327 447.757 67.6852 448.309 65.8554C448.773 64.3146 448.621 62.9029 447.9 61.635C447.131 60.3525 445.928 59.4644 444.291 58.9707L428.209 54.1209C426.186 53.5111 424.719 52.2806 423.724 50.3523C422.73 48.424 422.545 46.4246 423.155 44.4023L430.415 20.3266C431.025 18.3043 432.207 16.8223 434.087 15.8133C435.953 14.8526 437.904 14.653 439.927 15.2629L472.766 25.1658C474.74 25.7611 476.207 26.9916 477.168 28.8572C478.129 30.7228 478.343 32.6259 477.748 34.6001L474.118 46.6379L455.579 41.0476C456.088 39.3623 456.013 37.8689 455.451 36.5963C454.826 35.3574 453.734 34.4502 452.145 33.9711C450.604 33.5064 449.159 33.5959 447.906 34.2685C446.652 34.9411 445.793 36.0478 445.343 37.5405C444.82 39.274 444.895 40.7674 445.631 41.9872C446.303 43.2406 447.569 44.0951 449.35 44.6323L465.433 49.4821C467.407 50.0775 468.875 51.3079 469.835 53.1736C470.796 55.0392 470.996 56.9905 470.4 58.9647L462.705 84.4848Z" fill="white"/>
<path d="M381.251 42.5608C381.115 44.7192 380.249 46.4788 378.752 47.846C377.201 49.2602 375.4 49.8524 373.292 49.7197L369.879 49.505C368.674 49.4292 367.542 49.8115 366.588 50.5577C365.583 51.3008 365.072 52.2261 365.002 53.3304L363.916 70.597L345.394 69.4317L346.481 52.1651C346.553 51.0106 346.162 50.0285 345.309 49.1686C344.456 48.3086 343.377 47.8376 342.122 47.7587L338.658 47.5408C336.601 47.4113 334.835 46.6451 333.417 45.1449C332 43.6448 331.348 41.9912 331.468 40.0838L333.912 1.23389L352.434 2.39916L350.921 26.442C350.801 28.3493 351.302 29.9934 352.425 31.3742C353.547 32.7551 354.962 33.4992 356.769 33.6129C358.526 33.7234 360.073 33.1656 361.46 31.9427C362.797 30.7166 363.55 29.1514 363.67 27.2441L365.183 3.20129L383.654 4.36341L381.251 42.5608Z" fill="white"/>
<path d="M321.202 28.7557C321.343 30.5607 320.813 32.1661 319.704 33.4636C318.545 34.7651 317.037 35.4885 315.232 35.6298L315.283 36.2816C317.088 36.1403 318.644 36.6743 319.941 37.7835C321.239 38.8926 321.958 40.3497 322.1 42.1547L324.164 68.5281L305.914 69.957L304.701 54.4639C304.551 52.5586 303.774 51.0052 302.469 49.7958C301.163 48.5863 299.608 48.0523 297.903 48.1858C296.148 48.3232 294.695 49.0927 293.594 50.4906C292.493 51.8884 292.017 53.54 292.166 55.4453L293.379 70.9384L274.777 72.3948L269.521 5.25798L311.437 1.97619C313.543 1.81131 315.357 2.42601 316.975 3.76229C318.597 5.14871 319.486 6.84471 319.651 8.95057L321.202 28.7557ZM302.677 24.7578C302.505 22.5516 301.708 20.7475 300.387 19.3375C299.015 17.9315 297.302 17.3089 295.296 17.4659C293.241 17.6269 291.649 18.5587 290.513 20.161C289.327 21.7672 288.871 23.6695 289.04 25.8255C289.212 28.0317 289.959 29.8397 291.381 31.2418C292.752 32.6479 294.465 33.2704 296.521 33.1095C298.527 32.9524 300.122 32.0708 301.258 30.4685C302.344 28.8701 302.85 26.9639 302.677 24.7578Z" fill="white"/>
<path d="M259.963 34.436C260.373 36.1996 260.088 37.8662 259.186 39.315C258.234 40.7751 256.852 41.7157 255.088 42.1252L255.236 42.7621C257 42.3525 258.617 42.6481 260.066 43.5508C261.515 44.4535 262.444 45.7867 262.854 47.5503L268.838 73.3187L251.005 77.4598L247.49 62.3221C247.058 60.4605 246.057 59.0407 244.585 58.04C243.114 57.0393 241.496 56.7438 239.831 57.1306C238.116 57.5288 236.794 58.5069 235.914 60.0537C235.034 61.6004 234.81 63.3046 235.243 65.1662L238.758 80.3039L220.583 84.5246L205.35 18.9279L246.305 9.41708C248.363 8.93926 250.248 9.27592 252.047 10.3553C253.858 11.4837 254.991 13.0277 255.469 15.0852L259.963 34.436ZM241.049 33.2521C240.549 31.0966 239.491 29.4319 237.974 28.2352C236.408 27.05 234.62 26.6905 232.661 27.1456C230.652 27.6121 229.218 28.7713 228.334 30.5254C227.402 32.2909 227.235 34.24 227.724 36.3465C228.225 38.5021 229.233 40.1782 230.848 41.352C232.414 42.5373 234.202 42.8967 236.21 42.4303C238.17 41.9752 239.616 40.865 240.499 39.1109C241.334 37.3681 241.55 35.4076 241.049 33.2521Z" fill="white"/>
<path d="M215.414 86.1231L174.281 102.863L148.897 40.4884L190.029 23.7485L196.38 39.3538L177.188 47.1645C175.93 47.6764 175.076 48.5127 174.541 49.5993C174.025 50.7324 173.985 51.8347 174.44 52.9527C174.914 54.1173 175.731 54.9249 176.873 55.329C178.034 55.7797 179.21 55.7352 180.468 55.2234L199.66 47.4127L205.708 62.2726L186.516 70.0834C185.258 70.5952 184.404 71.4315 183.868 72.5181C183.333 73.6047 183.312 74.7536 183.767 75.8715C184.241 77.0361 185.058 77.8437 186.238 78.341C187.418 78.8382 188.641 78.7749 189.852 78.282L209.044 70.4713L215.414 86.1231Z" fill="white"/>
<path d="M165.235 98.9546C166.384 100.727 166.736 102.657 166.29 104.743C165.845 106.83 164.751 108.379 162.979 109.528L127.278 132.674L90.6429 76.1689L126.344 53.0223C128.116 51.8732 130.004 51.5486 132.063 51.9516C134.15 52.3968 135.74 53.4634 136.889 55.2358L146.301 69.7524C147.286 71.2716 147.628 72.9081 147.272 74.5776C146.916 76.247 145.936 77.6016 144.417 78.5865L144.827 79.2195C146.346 78.2346 148.01 77.935 149.68 78.2911C151.349 78.6473 152.676 79.585 153.661 81.1041L165.235 98.9546ZM127.989 75.991C126.84 74.2186 125.334 73.0973 123.555 72.5723C121.734 72.0747 120 72.3595 118.355 73.4265C116.667 74.5209 115.699 75.9872 115.453 77.8255C115.164 79.691 115.615 81.4964 116.764 83.2687C117.913 85.0411 119.377 86.1898 121.171 86.6452C122.95 87.1701 124.656 86.8432 126.344 85.7488C127.989 84.6818 128.984 83.2577 129.273 81.3921C129.547 79.596 129.138 77.7634 127.989 75.991ZM142.107 97.766C140.958 95.9936 139.479 94.9145 137.7 94.3895C135.906 93.9342 134.173 94.2189 132.527 95.2859C130.839 96.3803 129.872 97.8466 129.598 99.6427C129.309 101.508 129.733 103.271 130.882 105.044C132.031 106.816 133.495 107.965 135.316 108.462C137.095 108.987 138.801 108.66 140.489 107.566C142.135 106.499 143.129 105.075 143.418 103.209C143.665 101.371 143.256 99.5384 142.107 97.766Z" fill="white"/>
<path d="M123.532 135.587L95.5239 164.543L47.1205 117.723L60.0929 104.312L93.3138 136.446C94.1452 137.25 95.1829 137.624 96.4257 137.496C97.6696 137.44 98.728 136.925 99.5672 136.057L111.386 123.839L123.532 135.587Z" fill="white"/>
<path d="M85.4507 165.585C87.3372 166.536 88.6149 168.024 89.2838 170.05C89.9527 172.076 89.7898 173.965 88.8396 175.851L73.3662 206.575C72.4387 208.417 71.0404 209.74 69.1489 210.477C67.2575 211.213 65.4808 211.163 63.7739 210.304L9.78244 183.112L18.13 166.537L57.6578 186.445C59.3647 187.304 61.0735 187.489 62.7843 186.999C64.4951 186.509 65.7577 185.456 66.5495 183.884C67.3186 182.357 67.4134 180.715 66.7884 179.049C66.1635 177.383 65.0202 176.075 63.3133 175.215L23.7855 155.308L32.133 138.733L85.4507 165.585Z" fill="white"/>
<path d="M68.4518 212.784L69.2439 231.124L24.8766 233.04C22.9672 233.123 21.4335 233.743 20.2731 234.85C19.1128 235.957 18.5684 237.34 18.6422 239.048C18.7182 240.807 19.3819 242.188 20.6356 243.241C21.8892 244.294 23.4685 244.73 25.3779 244.647L69.7452 242.731L70.5374 261.071L26.17 262.987C24.2607 263.069 22.7269 263.689 21.5666 264.797C20.4062 265.904 19.8619 267.287 19.9357 268.995C20.0116 270.754 20.6754 272.134 21.929 273.188C23.1827 274.241 24.762 274.676 26.6713 274.594L71.0387 272.677L71.8308 291.017L4.55124 293.923L1.50209 223.327C1.41528 221.318 2.0406 219.478 3.33214 217.912C4.67392 216.344 6.24707 215.471 8.15643 215.388L68.4518 212.784Z" fill="white"/>
</g>
<defs>
<filter id="filter0_g_705_2538" x="0.634141" y="0.373887" width="662.033" height="294.409" filterUnits="userSpaceOnUse" color-interpolation-filters="sRGB">
<feFlood flood-opacity="0" result="BackgroundImageFix"/>
<feBlend mode="normal" in="SourceGraphic" in2="BackgroundImageFix" result="shape"/>
<feTurbulence type="fractalNoise" baseFrequency="1.3333333730697632 1.3333333730697632" numOctaves="3" seed="4597" />
<feDisplacementMap in="shape" scale="1.7200000286102295" xChannelSelector="R" yChannelSelector="G" result="displacedImage" width="100%" height="100%" />
<feMerge result="effect1_texture_705_2538">
<feMergeNode in="displacedImage"/>
</feMerge>
</filter>
</defs>
</svg>
