<svg width="270" height="86" viewBox="0 0 270 86" fill="none" xmlns="http://www.w3.org/2000/svg">
<g style="mix-blend-mode:multiply" filter="url(#filter0_gn_705_2551)">
<path fill-rule="evenodd" clip-rule="evenodd" d="M166.009 15.8877C168.12 15.8123 169.906 16.5035 171.466 17.9072C173.027 19.3612 173.845 21.0932 173.92 23.2041L175.782 75.375C175.858 77.4859 175.168 79.3224 173.763 80.832C172.307 82.3432 170.523 83.1111 168.412 83.1865L125.791 84.709L123.388 17.4092L166.009 15.8877ZM149.104 32.9473C146.793 33.03 145.134 34.4981 144.127 37.3018C143.12 40.1056 142.718 44.3474 142.919 49.9766C143.124 55.7063 143.829 59.9591 145.086 62.7324C146.294 65.5576 148.053 66.904 150.314 66.8232C152.576 66.7425 154.235 65.2742 155.238 62.3701C156.244 59.516 156.694 55.2219 156.489 49.4922C156.288 43.863 155.535 39.6624 154.33 36.9375C153.126 34.2127 151.366 32.8665 149.104 32.9473Z" fill="#F5373E"/>
<path fill-rule="evenodd" clip-rule="evenodd" d="M71.0439 14.96C72.6729 13.637 74.542 13.0415 76.6465 13.2236L110.918 16.1904C113.022 16.3726 114.712 17.2754 116.089 18.8584C117.462 20.4916 118.062 22.3107 117.88 24.415L112.727 83.9404L94.3379 82.3486L95.0586 74.0312C95.219 72.1775 94.7062 70.5175 93.5664 69.1064C92.3764 67.691 90.9334 66.8598 89.1797 66.708C87.4261 66.5563 85.9168 67.0817 84.6016 68.2803C83.2863 69.4789 82.5965 71.0345 82.4316 72.9385L81.7119 81.2559L63.2227 79.6553L68.375 20.1299C68.5572 18.0256 69.4108 16.3329 71.0439 14.96ZM92.2637 31.083C90.2095 30.9052 88.5241 31.7182 87.1611 33.4678C85.7981 35.2176 84.9878 37.5708 84.7275 40.5771C84.4673 43.5833 84.857 46.0902 85.9033 47.998C86.9497 49.9059 88.475 50.9472 90.5293 51.125C92.5334 51.2984 94.2647 50.5393 95.6777 48.7939C97.0364 47.0942 97.896 44.7456 98.1562 41.7393C98.4121 38.7831 97.9693 36.3215 96.9316 34.3135C95.8395 32.3511 94.2679 31.2565 92.2637 31.083Z" fill="#F5373E"/>
<path d="M207.628 79.7803L189.224 82.1592L180.592 15.3721L198.996 12.9932L207.628 79.7803Z" fill="#F5373E"/>
<path fill-rule="evenodd" clip-rule="evenodd" d="M57.1836 9.81934C59.2475 10.2675 60.8077 11.3779 61.9727 13.123C63.127 14.9175 63.491 16.7982 63.043 18.8623L58.8281 38.2764C58.444 40.0454 57.4744 41.4301 56.0391 42.3535C54.5543 43.2663 52.9021 43.5257 51.1328 43.1416L50.9941 43.7803C52.7635 44.1644 54.099 45.1239 55.0225 46.5596C55.9458 47.9951 56.216 49.5971 55.832 51.3662L50.2197 77.2188L32.3291 73.335L35.627 58.1475C36.0322 56.28 35.7341 54.5689 34.832 53.0352C33.9299 51.5013 32.5947 50.5415 30.9238 50.1787C29.2036 49.8053 27.5898 50.1247 26.1328 51.1465C24.676 52.1682 23.7453 53.613 23.3398 55.4805L20.043 70.667L1.80859 66.709L16.0957 0.899414L57.1836 9.81934ZM37.2676 20.0088C35.2526 19.5714 33.4599 20.0053 31.9111 21.2129C30.3133 22.4099 29.3289 24.1006 28.8701 26.2139C28.4006 28.3764 28.595 30.3233 29.5527 32.0752C30.4613 33.8163 31.9235 34.9053 33.9385 35.3428C35.9044 35.7696 37.6866 35.3845 39.2354 34.1768C40.7349 32.9584 41.7688 31.2786 42.2383 29.1162C42.7077 26.9537 42.463 24.9961 41.6035 23.2656C40.6949 21.5247 39.2333 20.4356 37.2676 20.0088Z" fill="#F5373E"/>
<path fill-rule="evenodd" clip-rule="evenodd" d="M248.188 2.64746C250.2 2.1965 252.083 2.54732 253.825 3.65137C255.578 4.80463 256.7 6.35778 257.162 8.41895L268.558 59.2607C269.031 61.371 268.69 63.3027 267.586 65.0449C266.493 66.8361 264.929 67.9084 262.917 68.3594L228.221 76.1357C226.16 76.5977 224.239 76.3073 222.437 75.165C220.634 74.0228 219.552 72.4097 219.09 70.3486L207.693 19.5068C207.231 17.4457 207.534 15.5737 208.676 13.7715C209.829 12.0183 211.431 10.8858 213.492 10.4238L248.188 2.64746ZM240.402 25.627C238.609 23.143 236.621 22.0936 234.363 22.5996C232.106 23.1057 230.708 24.9142 230.195 27.915C229.634 30.9272 230.006 35.1215 231.216 40.5195C232.448 46.016 233.912 50.0182 235.728 52.6006C237.543 55.1827 239.52 56.1826 241.777 55.6768C244.035 55.1708 245.396 53.4227 245.936 50.3125C246.426 47.2131 246.091 42.9584 244.859 37.4619C243.649 32.0637 242.147 28.1222 240.402 25.627Z" fill="#F5373E"/>
</g>
<defs>
<filter id="filter0_gn_705_2551" x="0.948594" y="0.039414" width="268.677" height="85.5296" filterUnits="userSpaceOnUse" color-interpolation-filters="sRGB">
<feFlood flood-opacity="0" result="BackgroundImageFix"/>
<feBlend mode="normal" in="SourceGraphic" in2="BackgroundImageFix" result="shape"/>
<feTurbulence type="fractalNoise" baseFrequency="1.3333333730697632 1.3333333730697632" numOctaves="3" seed="4597" />
<feDisplacementMap in="shape" scale="1.7200000286102295" xChannelSelector="R" yChannelSelector="G" result="displacedImage" width="100%" height="100%" />
<feMerge result="effect1_texture_705_2551">
<feMergeNode in="displacedImage"/>
</feMerge>
<feTurbulence type="fractalNoise" baseFrequency="2 2" stitchTiles="stitch" numOctaves="3" result="noise" seed="5599" />
<feColorMatrix in="noise" type="luminanceToAlpha" result="alphaNoise" />
<feComponentTransfer in="alphaNoise" result="coloredNoise1">
<feFuncA type="discrete" tableValues="0 0 0 0 0 0 0 0 0 0 0 0 0 1 1 1 1 1 1 1 1 1 1 1 1 1 1 1 1 1 1 1 1 1 1 1 1 0 0 0 0 0 0 0 0 0 0 0 0 0 0 0 0 0 0 0 0 0 0 0 0 0 0 0 0 0 0 0 0 0 0 0 0 0 0 0 0 0 0 0 0 0 0 0 0 0 0 0 0 0 0 0 0 0 0 0 0 0 0 0 "/>
</feComponentTransfer>
<feComposite operator="in" in2="effect1_texture_705_2551" in="coloredNoise1" result="noise1Clipped" />
<feFlood flood-color="#B61E23" result="color1Flood" />
<feComposite operator="in" in2="noise1Clipped" in="color1Flood" result="color1" />
<feMerge result="effect2_noise_705_2551">
<feMergeNode in="effect1_texture_705_2551" />
<feMergeNode in="color1" />
</feMerge>
</filter>
</defs>
</svg>
