<svg width="270" height="86" viewBox="0 0 270 86" fill="none" xmlns="http://www.w3.org/2000/svg">
<g filter="url(#filter0_g_705_2518)">
<path fill-rule="evenodd" clip-rule="evenodd" d="M166.009 15.8887C168.12 15.8134 169.906 16.5045 171.466 17.9082C173.027 19.3621 173.844 21.0943 173.919 23.2051L175.782 75.376C175.858 77.4869 175.168 79.3234 173.763 80.833C172.307 82.3444 170.522 83.1121 168.411 83.1875L125.79 84.71L123.388 17.4102L166.009 15.8887ZM149.104 32.9482C146.793 33.0308 145.134 34.499 144.127 37.3027C143.12 40.1066 142.718 44.3483 142.919 49.9775C143.124 55.7073 143.828 59.9601 145.085 62.7334C146.293 65.5587 148.053 66.905 150.314 66.8242C152.576 66.7433 154.235 65.2751 155.238 62.3711C156.244 59.517 156.694 55.2229 156.489 49.4932C156.288 43.8639 155.535 39.6633 154.33 36.9385C153.126 34.2136 151.366 32.8675 149.104 32.9482Z" fill="white"/>
<path fill-rule="evenodd" clip-rule="evenodd" d="M71.043 14.96C72.6719 13.637 74.5411 13.0415 76.6455 13.2236L110.918 16.1904C113.022 16.3726 114.711 17.2752 116.089 18.8584C117.462 20.4916 118.061 22.3107 117.879 24.415L112.727 83.9404L94.3379 82.3486L95.0576 74.0312C95.218 72.1774 94.7053 70.5176 93.5654 69.1064C92.3755 67.6911 90.9332 66.8598 89.1797 66.708C87.4261 66.5562 85.9168 67.0817 84.6016 68.2803C83.2863 69.4789 82.5955 71.0345 82.4307 72.9385L81.7109 81.2559L63.2227 79.6553L68.375 20.1299C68.5572 18.0258 69.41 16.3329 71.043 14.96ZM92.2637 31.083C90.2094 30.9052 88.5232 31.718 87.1602 33.4678C85.7971 35.2176 84.9878 37.5708 84.7275 40.5771C84.4673 43.5832 84.8561 46.0902 85.9023 47.998C86.9487 49.9059 88.4741 50.9471 90.5283 51.125C92.5325 51.2985 94.2646 50.5394 95.6777 48.7939C97.0363 47.0943 97.896 44.7454 98.1562 41.7393C98.4121 38.7831 97.9684 36.3215 96.9307 34.3135C95.8386 32.3514 94.2677 31.2566 92.2637 31.083Z" fill="white"/>
<path d="M207.628 79.7812L189.224 82.1602L180.592 15.373L198.996 12.9941L207.628 79.7812Z" fill="white"/>
<path fill-rule="evenodd" clip-rule="evenodd" d="M57.1826 9.81934C59.2468 10.2675 60.8076 11.3777 61.9727 13.123C63.127 14.9175 63.4901 16.7982 63.042 18.8623L58.8271 38.2764C58.443 40.0455 57.4736 41.4301 56.0381 42.3535C54.5534 43.2663 52.902 43.5256 51.1328 43.1416L50.9941 43.7803C52.7633 44.1644 54.099 45.124 55.0225 46.5596C55.9457 47.995 56.215 49.5972 55.8311 51.3662L50.2188 77.2188L32.3291 73.335L35.626 58.1475C36.0313 56.2801 35.734 54.5689 34.832 53.0352C33.9299 51.5012 32.5939 50.5415 30.9229 50.1787C29.2028 49.8053 27.5897 50.1248 26.1328 51.1465C24.6758 52.1683 23.7443 53.6128 23.3389 55.4805L20.042 70.667L1.80859 66.709L16.0947 0.899414L57.1826 9.81934ZM37.2666 20.0088C35.2517 19.5715 33.4589 20.0053 31.9102 21.2129C30.3123 22.4099 29.328 24.1006 28.8691 26.2139C28.3997 28.3764 28.595 30.3233 29.5527 32.0752C30.4614 33.8162 31.9235 34.9053 33.9385 35.3428C35.9042 35.7694 37.6857 35.3843 39.2344 34.1768C40.734 32.9584 41.7678 31.2787 42.2373 29.1162C42.7068 26.9537 42.463 24.9961 41.6035 23.2656C40.6949 21.5246 39.2324 20.4356 37.2666 20.0088Z" fill="white"/>
<path fill-rule="evenodd" clip-rule="evenodd" d="M248.188 2.64844C250.2 2.19759 252.083 2.54823 253.825 3.65234C255.578 4.80561 256.699 6.35878 257.161 8.41992L268.557 59.2617C269.03 61.3719 268.69 63.3038 267.586 65.0459C266.493 66.8371 264.929 67.9093 262.917 68.3604L228.221 76.1367C226.16 76.5987 224.239 76.3081 222.437 75.166C220.634 74.0238 219.551 72.4108 219.089 70.3496L207.693 19.5078C207.231 17.4466 207.534 15.5747 208.676 13.7725C209.829 12.0193 211.431 10.8868 213.492 10.4248L248.188 2.64844ZM240.402 25.6279C238.609 23.1438 236.621 22.0947 234.363 22.6006C232.106 23.1066 230.707 24.9149 230.194 27.916C229.633 30.9281 230.006 35.1224 231.216 40.5205C232.448 46.0169 233.912 50.0192 235.728 52.6016C237.543 55.1836 239.52 56.1837 241.777 55.6777C244.035 55.1717 245.395 53.4235 245.935 50.3135C246.425 47.2141 246.09 42.9593 244.858 37.4629C243.648 32.0647 242.147 28.1231 240.402 25.6279Z" fill="white"/>
</g>
<defs>
<filter id="filter0_g_705_2518" x="0.948594" y="0.039414" width="268.676" height="85.5305" filterUnits="userSpaceOnUse" color-interpolation-filters="sRGB">
<feFlood flood-opacity="0" result="BackgroundImageFix"/>
<feBlend mode="normal" in="SourceGraphic" in2="BackgroundImageFix" result="shape"/>
<feTurbulence type="fractalNoise" baseFrequency="1.3333333730697632 1.3333333730697632" numOctaves="3" seed="4597" />
<feDisplacementMap in="shape" scale="1.7200000286102295" xChannelSelector="R" yChannelSelector="G" result="displacedImage" width="100%" height="100%" />
<feMerge result="effect1_texture_705_2518">
<feMergeNode in="displacedImage"/>
</feMerge>
</filter>
</defs>
</svg>
