<svg width="270" height="86" viewBox="0 0 270 86" fill="none" xmlns="http://www.w3.org/2000/svg">
<g filter="url(#filter0_g_705_2517)">
<path fill-rule="evenodd" clip-rule="evenodd" d="M149.033 30.9482C150.615 30.8918 152.077 31.345 153.328 32.3008C154.546 33.2315 155.467 34.5626 156.159 36.1289C157.517 39.2014 158.284 43.7039 158.488 49.4209C158.696 55.2306 158.253 59.8159 157.127 63.0215L157.128 63.0225C156.555 64.6816 155.736 66.1065 154.586 67.1416C153.402 68.2068 151.969 68.7657 150.386 68.8223C148.803 68.8788 147.333 68.4243 146.076 67.4463C144.855 66.4959 143.936 65.1328 143.246 63.5186C141.834 60.3776 141.126 55.8143 140.92 50.0479C140.717 44.3515 141.106 39.798 142.245 36.626C142.824 35.0142 143.648 33.6177 144.808 32.6006C145.998 31.556 147.437 31.0053 149.033 30.9482ZM149.104 32.9473L148.89 32.959C146.69 33.1229 145.102 34.5857 144.127 37.3018C143.12 40.1056 142.718 44.3475 142.919 49.9766C143.124 55.7062 143.828 59.9591 145.085 62.7324C146.255 65.4692 147.943 66.8179 150.104 66.8262L150.314 66.8232C152.435 66.7475 154.025 65.4518 155.042 62.8975L155.238 62.3701C156.181 59.6945 156.635 55.7529 156.52 50.5498L156.489 49.4922C156.301 44.215 155.627 40.1931 154.551 37.4658L154.33 36.9375C153.126 34.2127 151.366 32.8665 149.104 32.9473Z" fill="#00724D"/>
<path fill-rule="evenodd" clip-rule="evenodd" d="M166.009 15.8877C168.12 15.8123 169.906 16.5035 171.466 17.9072C173.027 19.3611 173.844 21.0933 173.919 23.2041L175.782 75.375C175.857 77.4858 175.168 79.3225 173.763 80.832L173.485 81.1064C172.082 82.4362 170.39 83.1159 168.411 83.1865L125.79 84.709L123.388 17.4092L166.009 15.8877ZM166.08 17.8857L125.457 19.3359L127.717 82.6377L168.34 81.1885C169.946 81.1311 171.228 80.5715 172.307 79.459C173.342 78.3426 173.84 77.0267 173.783 75.4463L171.921 23.2754C171.865 21.7171 171.292 20.4813 170.107 19.376C168.918 18.3131 167.637 17.8302 166.08 17.8857Z" fill="#00724D"/>
<path fill-rule="evenodd" clip-rule="evenodd" d="M85.583 32.2383C87.307 30.0251 89.622 28.8462 92.4365 29.0898C95.0226 29.3138 97.0448 30.6945 98.4141 32.8906L98.6787 33.3408L98.6934 33.3672L98.708 33.3945C99.9534 35.8045 100.43 38.6601 100.148 41.9111C99.8642 45.1946 98.9091 47.9541 97.2402 50.042L97.2324 50.0518C95.4402 52.2654 93.0818 53.3531 90.3564 53.1172C87.5836 52.8772 85.4913 51.4063 84.1494 48.96C82.8501 46.591 82.4545 43.649 82.7354 40.4043C83.0176 37.1439 83.9132 34.3821 85.583 32.2383ZM92.2637 31.082C90.2094 30.9042 88.5231 31.718 87.1602 33.4678L86.9111 33.8027C85.6984 35.5139 84.9715 37.7581 84.7275 40.5762C84.4673 43.5824 84.8569 46.0902 85.9033 47.998C86.9497 49.9057 88.4751 50.9462 90.5293 51.124C92.4081 51.2865 94.0473 50.6302 95.4092 49.1094L95.6777 48.7939C96.9515 47.2005 97.7867 45.0363 98.1006 42.2949L98.1562 41.7393C98.4121 38.7833 97.9692 36.3215 96.9316 34.3135C95.8395 32.3511 94.2679 31.2555 92.2637 31.082Z" fill="#00724D"/>
<path fill-rule="evenodd" clip-rule="evenodd" d="M71.0439 14.959C72.6728 13.6361 74.5421 13.0405 76.6465 13.2227L110.918 16.1895C113.022 16.3716 114.711 17.2752 116.089 18.8584C117.462 20.4916 118.062 22.3107 117.88 24.415L112.727 83.9404L94.3379 82.3486L95.0586 74.0312C95.2191 72.1775 94.7061 70.5175 93.5664 69.1064C92.3764 67.6909 90.9334 66.8588 89.1797 66.707C87.4262 66.5553 85.9167 67.0809 84.6016 68.2793C83.2863 69.4779 82.5964 71.0345 82.4316 72.9385L81.7119 81.2559L63.2227 79.6553L68.375 20.1299C68.5458 18.157 69.3069 16.5458 70.7471 15.2207L71.0439 14.959ZM76.4736 15.2158C74.9058 15.0801 73.5528 15.5037 72.3203 16.499C71.1111 17.5196 70.5055 18.7164 70.3682 20.3018L65.3867 77.835L79.8906 79.0898L80.4395 72.7656C80.6405 70.4426 81.5115 68.3906 83.2549 66.8018C84.9708 65.2381 87.0268 64.5135 89.3525 64.7148C91.5624 64.9061 93.3773 65.9202 94.8145 67.4961L95.0967 67.8193L95.1094 67.834L95.1221 67.8496C96.5884 69.665 97.2555 71.8375 97.0508 74.2031L96.5029 80.5283L110.906 81.7754L115.887 24.2422C116.021 22.6885 115.604 21.3919 114.562 20.1504C113.511 18.9511 112.298 18.317 110.746 18.1826L76.4736 15.2158Z" fill="#00724D"/>
<path fill-rule="evenodd" clip-rule="evenodd" d="M207.629 79.7803L189.224 82.1592L180.592 15.3721L198.996 12.9932L207.629 79.7803ZM182.831 17.0986L190.95 79.9189L205.388 78.0527L197.269 15.2324L182.831 17.0986Z" fill="#00724D"/>
<path fill-rule="evenodd" clip-rule="evenodd" d="M31.0635 19.3525C32.9961 17.9974 35.2558 17.525 37.6914 18.0537C40.055 18.5668 41.9336 19.8732 43.1436 21.9209L43.377 22.3408L43.3945 22.376C44.4703 24.542 44.7511 26.9663 44.1924 29.54C43.6336 32.1138 42.3731 34.2035 40.4961 35.7285L40.4648 35.7539C38.4284 37.3419 36.0349 37.8442 33.5137 37.2969C30.9571 36.7418 28.9863 35.3023 27.7871 33.0137C27.7846 33.0091 27.7818 33.0046 27.7793 33C26.5667 30.7607 26.366 28.3182 26.915 25.7891C27.4549 23.3026 28.6527 21.1674 30.6807 19.6357L31.0635 19.3525ZM37.2676 20.0088C35.2526 19.5713 33.4599 20.0053 31.9111 21.2129L31.6182 21.4434C30.1918 22.6231 29.2992 24.2327 28.8691 26.2139L28.7891 26.6162C28.4271 28.6184 28.6549 30.4318 29.5527 32.0742C30.4613 33.8154 31.9234 34.9053 33.9385 35.3428C35.7813 35.7428 37.4624 35.4292 38.9414 34.3936L39.2354 34.1768C40.6412 33.0345 41.6377 31.4865 42.1436 29.5156L42.2383 29.1162C42.7078 26.9537 42.463 24.9961 41.6035 23.2656C40.7517 21.6332 39.4138 20.5734 37.6299 20.0957L37.2676 20.0088Z" fill="#00724D"/>
<path fill-rule="evenodd" clip-rule="evenodd" d="M57.1836 9.81934C59.2476 10.2675 60.8077 11.3778 61.9727 13.123C63.127 14.9176 63.4911 16.7981 63.043 18.8623L58.8281 38.2754L58.749 38.6025C58.3208 40.2161 57.3841 41.4877 56.0381 42.3535L55.7578 42.5166C54.3465 43.2957 52.7915 43.5007 51.1328 43.1406L50.9941 43.7803C52.7633 44.1644 54.099 45.1231 55.0225 46.5586C55.9459 47.9942 56.2161 49.5969 55.832 51.3662L50.2197 77.2178L32.3291 73.334L35.626 58.1475C36.0314 56.2798 35.7342 54.5681 34.832 53.0342C33.9299 51.5005 32.5938 50.5415 30.9229 50.1787C29.2028 49.8054 27.5897 50.1248 26.1328 51.1465L25.8662 51.3428C24.5619 52.3503 23.719 53.7295 23.3389 55.4805L20.042 70.667L1.80859 66.708L16.0957 0.899414L57.1836 9.81934ZM4.18652 65.1777L18.5117 68.2871L21.3848 55.0557C21.8883 52.7366 23.0839 50.8417 24.9844 49.5088C26.9001 48.1653 29.084 47.7332 31.3477 48.2246C33.5709 48.7073 35.3751 50.0115 36.5566 52.0205C37.7141 53.9886 38.093 56.2142 37.5811 58.5723L34.708 71.8037L48.6885 74.8389L53.877 50.9424C54.1561 49.6565 53.9586 48.601 53.3408 47.6406C52.701 46.646 51.8144 46.0047 50.5693 45.7344L48.6152 45.3105L49.6025 40.7627L51.5566 41.1865C52.8411 41.4654 53.9534 41.2785 54.9668 40.6631C55.9412 40.0326 56.6002 39.1083 56.873 37.8516L61.0879 18.4375C61.4179 16.9168 61.17 15.5805 60.2988 14.2197C59.4078 12.8912 58.2841 12.1046 56.7588 11.7734L17.625 3.27734L4.18652 65.1777Z" fill="#00724D"/>
<path fill-rule="evenodd" clip-rule="evenodd" d="M233.926 20.6484C235.505 20.2945 237.042 20.4873 238.463 21.209C239.669 21.8214 240.715 22.7749 241.637 23.9434L242.023 24.457L242.032 24.4688L242.041 24.4814C244.008 27.2943 245.58 31.5355 246.811 37.0244C248.064 42.6154 248.459 47.1587 247.91 50.625L247.908 50.6396L247.905 50.6543C247.601 52.4072 247.036 53.9658 246.08 55.1973C245.094 56.4684 243.778 57.2775 242.215 57.6279C240.651 57.9784 239.115 57.8087 237.681 57.0801C236.291 56.3743 235.115 55.2061 234.092 53.751C232.045 50.8394 230.512 46.524 229.265 40.958C228.04 35.4946 227.59 30.9731 228.229 27.5488C228.827 24.0889 230.607 21.3925 233.926 20.6484ZM240.402 25.6279C238.609 23.1437 236.621 22.0937 234.363 22.5996C232.106 23.1056 230.707 24.914 230.194 27.915C229.633 30.9272 230.006 35.1223 231.216 40.5205C232.448 46.0167 233.912 50.0183 235.728 52.6006C237.487 55.102 239.397 56.1186 241.566 55.7197L241.777 55.6768C244.035 55.1707 245.396 53.4227 245.936 50.3125C246.426 47.2132 246.09 42.9583 244.858 37.4619C243.649 32.0642 242.147 28.1231 240.402 25.6279Z" fill="#00724D"/>
<path fill-rule="evenodd" clip-rule="evenodd" d="M248.188 2.64746C250.2 2.19657 252.083 2.54731 253.825 3.65137C255.578 4.80463 256.699 6.35783 257.161 8.41895L268.558 59.2607C269.031 61.3709 268.69 63.3028 267.586 65.0449C266.493 66.8361 264.929 67.9084 262.917 68.3594L228.221 76.1357C226.289 76.5688 224.48 76.3404 222.776 75.3691L222.437 75.165C220.634 74.0228 219.551 72.4097 219.089 70.3486L207.693 19.5068C207.231 17.4457 207.534 15.5737 208.676 13.7715C209.757 12.1278 211.233 11.03 213.111 10.5186L213.492 10.4238L248.188 2.64746ZM252.735 5.3291C251.432 4.5091 250.096 4.26925 248.626 4.59863L213.93 12.376C212.392 12.7207 211.228 13.5354 210.354 14.8604C209.512 16.1964 209.298 17.5188 209.646 19.0693L221.041 69.9111C221.393 71.4825 222.176 72.6323 223.507 73.4756C224.837 74.3189 226.212 74.5368 227.783 74.1846L262.479 66.4082C263.986 66.0704 265.081 65.3107 265.879 64.0029L265.888 63.9883L265.896 63.9746C266.711 62.6898 266.965 61.3017 266.605 59.6982L255.21 8.85645C254.868 7.33157 254.073 6.21164 252.735 5.3291Z" fill="#00724D"/>
</g>
<defs>
<filter id="filter0_g_705_2517" x="0.948594" y="0.039414" width="268.677" height="85.5296" filterUnits="userSpaceOnUse" color-interpolation-filters="sRGB">
<feFlood flood-opacity="0" result="BackgroundImageFix"/>
<feBlend mode="normal" in="SourceGraphic" in2="BackgroundImageFix" result="shape"/>
<feTurbulence type="fractalNoise" baseFrequency="1.3333333730697632 1.3333333730697632" numOctaves="3" seed="4597" />
<feDisplacementMap in="shape" scale="1.7200000286102295" xChannelSelector="R" yChannelSelector="G" result="displacedImage" width="100%" height="100%" />
<feMerge result="effect1_texture_705_2517">
<feMergeNode in="displacedImage"/>
</feMerge>
</filter>
</defs>
</svg>
