<svg width="393" height="76" viewBox="0 0 393 76" fill="none" xmlns="http://www.w3.org/2000/svg">
<g style="mix-blend-mode:multiply" filter="url(#filter0_g_705_2416)">
<path d="M215.585 29.2987C217.685 26.4236 220.682 29.1314 218.51 31.3456C216.929 32.9281 211.188 38.3719 206.686 44.2851C202.724 49.5174 199.717 54.3106 201.307 56.0956C202.471 57.4034 205.334 56.3661 209.321 52.3446C210.148 50.7435 211.391 49.0371 212.827 47.3983C216.564 43.1413 221.085 41.1651 222.833 42.2763C223.324 42.5871 223.576 43.0745 223.631 43.6327C223.804 43.3085 223.973 42.9336 224.197 42.6044C225.298 40.7553 228.63 41.8155 227.039 44.4296C225.713 46.6082 219.09 52.273 220.941 54.4501C222.369 56.1368 225.325 54.6383 229.226 49.9745C229.412 49.5781 229.597 49.1814 229.774 48.788C230.854 46.3573 231.784 43.9491 233.065 41.4882C234.027 39.643 237.327 40.3354 235.982 43.0634C234.829 45.3506 227.999 51.7362 230.666 53.7089C232.406 54.9953 235.886 54.4735 240.982 44.4286C241.492 43.0115 241.952 41.6023 242.772 40.1903C244.077 37.8809 247.127 38.9707 245.739 41.7567C244.871 43.5369 241.714 46.898 240.258 50.2616C239.072 53.0176 237.941 55.456 236.932 57.6698C242.112 55.7599 247.43 55.1183 250.993 56.1835C253.371 56.9104 252.213 60.5382 249.964 59.6376C245.198 57.7726 240.53 57.5947 236.333 58.8417C228.302 75.4619 224.464 76.3471 222.341 74.912C219.928 73.2621 221.366 69.4368 224.429 65.7812C226.961 62.7205 230.904 60.119 235.126 58.3525C236.476 55.3141 237.795 52.0738 239.188 48.9775C235.495 55.306 230.203 58.8829 228.136 57.1298C227.007 56.1569 227.331 54.4599 228.09 52.538C224.521 57.0421 220.489 59.847 218.516 57.9648C217.504 57.0383 217.766 55.5265 218.522 53.8134C215.527 57.7937 212.075 60.2304 209.669 58.6708C208.19 57.6971 207.963 56.0951 208.541 54.2138C204.75 58.4415 200.559 61.2252 198.556 59.3495C197.398 58.2649 197.543 56.4738 198.346 54.5087C195.061 58.5961 191.115 61.2249 188.76 59.414C185.778 57.1642 188.533 52.482 192.634 48.3681C196.636 44.3592 201.275 42.6766 202.948 43.8974C203.731 44.4331 203.761 45.3507 203.485 46.2782C204.417 45.1252 205.201 44.1294 205.689 43.4501C207.791 40.6259 213.874 31.6004 215.585 29.2987ZM234.621 59.4589C231.262 60.7869 228.154 63.1091 225.563 66.1269C224.075 67.8967 222.586 70.6976 224.599 71.7372C226.777 72.8547 230.089 68.8012 233.96 60.8993L234.621 59.4589ZM294.388 29.1073C295.202 27.1151 298.654 27.6689 297.469 30.4901C296.481 32.8416 290.477 39.9219 293.36 41.5644C296.12 43.132 298.797 35.1516 302.853 34.1337C305.326 33.5135 305.923 36.9396 303.907 37.498C301.991 38.0314 300.568 37.8101 298.504 39.6425C295.501 42.3417 293.748 46.8819 291.088 45.289C289.85 44.5479 289.922 42.9524 290.403 41.0966C288.032 45.4773 285.017 48.3371 282.406 47.1523C280.839 46.4278 280.361 44.9367 280.608 43.0595C278.392 47.0288 275.583 51.2754 270.741 53.7216C263.976 69.877 260.289 70.9265 258.141 69.665C255.631 68.1681 256.829 64.2615 259.658 60.4228C262.074 57.0894 266.46 53.699 269.979 52.1112C271.109 49.1053 272.186 45.8497 273.345 42.7333C270.052 49.2792 264.993 53.1784 262.82 51.5575C260.89 50.093 262.672 46.4777 263.937 43.1298C264.864 40.6368 265.641 38.1753 266.767 35.6396C267.612 33.7381 270.95 34.2238 269.777 37.0302C268.768 39.3845 262.348 46.1822 265.133 47.9853C266.949 49.1612 270.39 48.4248 274.852 38.0819C275.273 36.6359 275.644 35.2003 276.375 33.7401C277.533 31.3543 280.645 32.2531 279.433 35.12C278.678 36.9508 275.735 40.5009 274.491 43.9482C273.507 46.6621 272.57 49.1056 271.728 51.2675C276.915 48.5133 278.792 45.3313 281.011 41.2958C281.572 39.4983 282.598 37.4951 283.855 35.536C286.919 30.7714 291.097 28.1459 292.99 28.9853C293.522 29.2198 293.844 29.6649 293.98 30.2089L294.388 29.1073ZM269.031 54.5048C265.216 56.4166 262.316 58.7064 260.812 60.6972C259.437 62.5562 258.125 65.4439 260.198 66.3564C262.442 67.3365 265.495 63.0845 268.867 54.9569L269.031 54.5048ZM154.759 28.7636C156.984 26.8707 159.404 28.9397 157.353 31.1562C156.391 32.1422 150.162 36.3257 144.29 42.1816C142.925 43.6423 135.215 51.6321 136.252 52.5995C136.865 53.1688 141.211 48.2975 143.219 46.538C147.072 43.1065 149.584 40.8822 151.445 42.8993C154.048 45.7538 143.127 53.0338 144.886 55.0419C146.012 56.3462 150.039 54.954 154.537 51.2294C155.13 50.1156 155.933 49.0194 156.869 48.0224C160.296 44.29 165.494 42.1134 167.753 44.2011C169.665 46.0188 165.843 51.8274 160.884 53.1972C158.301 53.9031 157.639 50.3012 160.085 50.4062C166.708 50.6901 168.34 45.9621 166.822 44.4677C165.501 43.1349 162.562 44.9994 160.207 47.5526C158.015 49.8578 156.334 53.3594 157.928 55.4696C161.892 60.6421 168.305 50.3503 174.408 49.6933C177.742 49.3259 177.312 53.3918 174.459 53.2694C170.892 53.1164 167.925 54.4692 165.309 55.9394C161.332 58.219 158.16 60.7375 155.286 58.7255C153.187 57.2358 153.031 54.8186 154.014 52.3534C148.982 56.7248 143.127 60.0022 141.186 57.3612C137.909 52.9584 149.914 46.7001 148.491 44.9286C147.851 44.1008 146.205 45.2795 143.758 47.3564C140.478 50.1243 136.507 54.2622 134.572 56.3358C132.925 58.0775 130.185 56.6958 131.557 54.621C132.091 53.8289 132.193 53.6479 132.817 52.9413C128.828 55.8049 124.973 57.2431 123.485 55.2812C120.609 51.4881 128.646 45.0765 132.371 41.5732C131.441 41.5997 130.547 41.7343 129.638 41.6093C129.183 41.5468 128.82 41.1886 128.89 40.6835C128.966 40.1277 129.419 39.829 129.874 39.8915C131.036 40.0513 132.112 40.457 133.21 40.7108C135.656 38.2673 138.646 34.869 140.541 33.0702C143.095 30.59 146.111 33.3723 143.079 35.581C141.534 36.7071 138.455 38.137 135.08 40.9677C136.162 40.9619 137.2 40.899 138.261 41.0448C138.715 41.1073 139.071 41.5164 138.995 42.0722C138.926 42.5774 138.479 42.8251 138.024 42.7626C136.711 42.582 135.453 41.997 134.211 41.6718L133.328 42.4775C128.548 46.9169 125.479 50.5108 126.745 52.538C127.68 54.036 130.72 53.4734 135.392 50.1073C136.958 48.3919 139.356 45.7563 143.119 41.5605C145.461 38.9613 152.579 30.7125 154.759 28.7636ZM202.379 45.1913C198.977 42.5981 188.904 52.878 192.286 56.4413C193.977 58.2229 197.24 55.0032 199.734 51.7069C200.46 50.5097 201.238 49.3106 202.067 48.161C202.793 46.9638 203.058 45.6794 202.379 45.1913ZM222.288 42.995C220.637 41.8233 216.543 45.0397 214.209 48.4433C212.365 51.0819 211.418 53.9923 212.997 55.4784C214.966 57.2848 218.312 52.7073 220.676 49.6083C221.405 48.1539 221.994 46.8156 222.683 45.4677C223.067 44.1493 222.84 43.4026 222.288 42.995ZM82.9276 29.7411C84.8672 28.4011 87.3716 30.8981 84.0702 32.5263C82.3877 33.3576 79.2889 34.3012 76.5253 36.0888C74.9316 37.1592 74.0676 38.8189 75.0057 40.3202C76.2537 42.3918 79.6626 42.0185 83.7245 39.9775C83.7226 38.0088 85.7746 35.2121 90.8436 31.9267C92.4228 30.9052 94.7933 32.7779 93.455 34.2431C93.0657 34.6595 92.881 34.9246 90.3915 36.6864C89.4172 37.4616 88.2957 38.1929 87.1259 38.9101L85.5956 39.9462C86.4281 42.1887 89.3112 43.3532 94.1112 40.6347C94.8892 39.7393 95.8357 38.8995 96.8788 38.1679C100.995 35.2128 106.528 34.1419 108.313 36.6464C109.815 38.8161 104.888 43.7232 99.7538 44.0526C97.0815 44.217 97.168 40.5556 99.5409 41.1571C105.967 42.7861 108.529 38.4904 107.348 36.7177C106.326 35.1434 103.069 36.3693 100.242 38.3886C97.6263 40.1982 95.2665 43.2828 96.3964 45.6737C99.222 51.5461 107.6 42.7793 113.709 43.3808C117.047 43.7012 115.797 47.5931 113.029 46.8915C109.569 46.0143 106.387 46.7337 103.527 47.6396C99.1685 49.0601 95.55 50.8791 93.1464 48.3232C91.3351 46.3719 91.7625 43.8735 93.3563 41.5985C89.4032 43.6736 85.6178 43.4453 84.2333 41.6708C83.9979 41.3883 83.8752 41.0856 83.7665 40.7343C78.7191 43.2283 73.4672 44.4377 71.8173 41.9276C70.7616 40.2851 72.3893 37.8424 75.9804 35.2362C78.8454 33.1063 81.4607 30.7427 82.9276 29.7411ZM292.558 29.7773C290.751 28.8637 287.179 32.6518 285.377 36.3642C283.945 39.2473 283.441 42.2655 285.223 43.5009C287.438 44.9955 290.031 40.0337 291.908 36.6181C292.414 35.0715 292.797 33.6604 293.266 32.1757C293.499 30.8026 293.164 30.0983 292.558 29.7773ZM22.912 6.63077C30.4739 0.702809 38.9782 -0.189981 43.2118 3.21476C46.9277 6.11737 47.4273 12.2305 41.5917 21.04C44.6483 20.7901 47.7103 20.8465 50.8309 21.4628C56.2815 14.1893 61.7433 7.68012 65.8348 5.01749C70.8868 1.77954 75.7696 0.839465 80.745 2.70304C83.8225 3.88112 81.6239 6.92311 79.5712 6.08683C77.0573 5.10442 75.4398 2.68082 71.7274 3.39933C62.4215 5.27307 50.5945 26.1586 43.4364 38.6093C42.5407 40.1017 40.2694 38.2492 39.0175 39.7978C38.5692 40.5186 37.5415 40.0236 37.7919 39.7138C41.2378 34.8166 45.4306 28.7349 49.7304 22.9579C46.8094 22.0328 44.256 21.8162 41.0429 21.8134C39.345 24.2361 37.1908 26.87 34.4784 29.665C20.7166 43.8974 5.58261 44.8385 2.26258 37.748C-0.108628 32.6829 3.59435 27.9344 9.09461 23.9755C11.5163 22.2053 13.9631 25.5344 11.4364 27.1025C8.3031 29.0366 1.37389 29.498 3.13367 34.623C5.47835 41.3205 23.0927 39.1183 33.3427 28.7636C44.5971 17.3736 46.2354 7.55555 42.3055 3.99308C39.1497 1.03136 32.3843 2.25542 24.2382 10.0282C18.5067 15.5718 14.9954 22.9181 19.1757 26.1708C22.4799 28.8245 33.6119 26.3112 33.6347 14.2226C33.6452 11.5192 37.5683 11.2054 37.5663 14.4696C37.5152 24.6713 23.2287 31.1083 18.0663 27.0038C10.9968 21.5502 15.5525 12.4538 22.912 6.63077ZM59.6913 28.0692C64.5226 25.1122 69.4269 24.566 70.7665 26.1454C71.1435 26.5881 71.2397 27.1293 71.1259 27.6786C71.3877 27.4204 71.6608 27.1121 71.9725 26.8642C73.5729 25.4251 76.4389 27.4246 74.1444 29.4491C72.2324 31.1362 64.2279 34.5815 65.3495 37.2099C66.2943 39.4369 70.1204 38.5632 76.0907 34.3837L76.3993 34.6562C70.663 39.7175 63.6597 42.8497 61.9901 39.8476C61.2982 38.6626 61.9976 37.2973 63.2274 35.8857C59.1867 38.798 55.1671 40.1001 53.3319 37.8974C50.9614 35.0103 54.7392 31.1056 59.6913 28.0692ZM328.842 5.03897C330.353 2.53922 333.304 3.7359 332.06 6.48722C331.459 7.7272 326.875 13.6676 323.158 21.081C322.325 22.8993 317.541 32.9164 318.83 33.5067C319.591 33.8528 322.173 27.8574 323.52 25.5526C326.09 21.0778 327.769 18.1715 330.173 19.496C333.545 21.3801 325.489 31.7436 327.793 33.0917C329.374 34.0321 333.121 31.0108 336.364 25.3837L336.808 25.4892C333.364 32.0533 328.028 38.5876 325.018 36.4618C320.516 33.3227 329.922 23.5874 328.012 22.3573C327.142 21.7748 325.954 23.4134 324.29 26.1581C322.055 29.8217 319.599 35.0036 318.42 37.5829C317.408 39.7565 314.372 39.3128 315.016 36.911C315.671 34.5585 314.905 36.8843 321.85 20.8622C323.249 17.6556 327.391 7.57729 328.842 5.03897ZM70.0331 26.6708C68.804 25.062 63.9405 26.9184 60.702 29.4765C58.1579 31.4492 56.3901 33.9471 57.4569 35.8349C58.8012 38.1447 63.3558 34.7662 66.5321 32.5077C67.6605 31.3353 68.6179 30.2312 69.6757 29.1483C70.4336 28.0035 70.4392 27.2237 70.0331 26.6708ZM378.636 21.4521C381.681 17.4429 386.676 14.8819 389.001 16.7226C391.062 18.3704 388.508 24.3496 382.929 26.3739C380.416 27.2973 379.546 23.6592 382.043 23.5526C388.514 23.2769 389.737 18.4269 388.147 17.0653C386.768 15.8481 384.053 18.006 381.922 20.7001C379.888 23.288 378.602 26.6604 380.275 28.7841C382.488 31.5993 387.081 29.1572 391.861 23.9511L392.18 24.2441C388.959 28.9244 382.162 34.7267 377.92 32.2021C375.63 30.8229 375.361 28.346 376.245 25.7421C373.081 28.9995 369.343 29.96 367.467 28.6728C367.157 28.4746 366.949 28.2228 366.739 27.9208C362.681 31.8234 358.04 34.564 355.709 32.6698C354.548 31.707 354.771 29.8069 356.146 27.3466C352.232 32.1524 347.704 35.2228 345.702 33.1454C344.729 32.1775 345.056 30.678 345.883 28.998C342.724 32.8496 339.172 35.1392 336.833 33.4804C333.802 31.2978 336.452 26.5552 340.46 22.3505C344.371 18.2531 348.972 16.467 350.672 17.6503C351.15 17.9815 351.381 18.4799 351.412 19.04C351.599 18.7233 351.783 18.3555 352.02 18.036C353.198 16.2346 356.482 17.4323 354.784 19.9775C353.369 22.0984 346.514 27.4815 348.272 29.7343C349.757 31.6445 353.232 29.8189 357.931 24.248L358.136 24.3505C360.014 21.6695 361.607 18.9841 362.617 17.6952C364.061 15.8318 367.204 17.4561 364.549 20.0058C363.196 21.3066 360.527 23.1424 358.433 25.6816C357.237 27.1834 356.915 29.0262 358.263 30.1737C360.078 31.7715 363.215 30.385 366.471 27.2118C365.874 25.3358 366.985 22.05 370.824 17.3866C372.021 15.9363 374.846 17.0048 374.014 18.8056C373.768 19.3203 373.672 19.6285 371.831 22.0605C371.136 23.0938 370.288 24.1307 369.39 25.1679L368.244 26.6171C369.738 28.5321 372.909 28.7479 376.741 24.5107C377.229 23.4664 377.879 22.4262 378.636 21.4521ZM350.097 18.3456C348.496 17.1065 344.271 20.1482 341.797 23.4511C339.844 26.0104 338.776 28.8786 340.292 30.4296C342.184 32.3172 345.719 27.8832 348.21 24.8857C349 23.4631 349.643 22.1509 350.388 20.8329C350.827 19.5318 350.631 18.7759 350.097 18.3456Z" fill="#00724D"/>
</g>
<defs>
<filter id="filter0_g_705_2416" x="0.962715" y="0.665352" width="391.787" height="75.2923" filterUnits="userSpaceOnUse" color-interpolation-filters="sRGB">
<feFlood flood-opacity="0" result="BackgroundImageFix"/>
<feBlend mode="normal" in="SourceGraphic" in2="BackgroundImageFix" result="shape"/>
<feTurbulence type="fractalNoise" baseFrequency="2.2727272510528564 2.2727272510528564" numOctaves="3" seed="5243" />
<feDisplacementMap in="shape" scale="1.1399999856948853" xChannelSelector="R" yChannelSelector="G" result="displacedImage" width="100%" height="100%" />
<feMerge result="effect1_texture_705_2416">
<feMergeNode in="displacedImage"/>
</feMerge>
</filter>
</defs>
</svg>
